<svg version="1.1" id="Layer_1" xmlns="http://www.w3.org/2000/svg" xmlns:xlink="http://www.w3.org/1999/xlink" x="0px" y="0px"
	 width="100%" viewBox="0 0 305 165" enable-background="new 0 0 305 165" xml:space="preserve">
<path fill="#FEFEFE" opacity="1.000000" stroke="none" 
	d="
M217.000000,166.000000 
	C145.102051,166.000000 73.204094,166.000000 1.000000,166.000000 
	C1.000000,135.313110 1.000000,104.625214 1.344319,73.575996 
	C4.169839,73.602608 6.651039,73.990547 9.132239,74.378479 
	C9.243386,73.848343 9.354533,73.318214 9.465680,72.788078 
	C8.832576,72.396011 8.222747,71.957619 7.559979,71.624588 
	C6.863118,71.274429 6.115592,71.025093 4.845157,70.511253 
	C6.878853,69.975555 8.272359,69.557961 9.690303,69.254585 
	C10.497539,69.081863 11.343485,69.072533 12.174063,69.028984 
	C35.655613,67.798058 56.769871,74.533325 75.768684,88.139648 
	C82.476738,92.943748 88.217781,98.779266 91.459175,106.505821 
	C92.675064,109.404152 93.591949,112.815826 93.318886,115.875076 
	C92.618530,123.721481 83.700775,132.921143 75.648247,133.694260 
	C68.187660,134.410538 60.607960,134.063034 53.090916,133.840088 
	C51.839584,133.802963 49.627796,132.055328 49.580711,131.019867 
	C49.265686,124.092613 49.417038,117.144157 49.417038,109.859505 
	C57.496704,110.740364 65.528641,110.726120 73.296616,115.468964 
	C71.133133,117.280556 69.694832,118.484917 68.194252,119.741425 
	C73.633461,122.197525 76.357643,121.246887 78.383537,116.335464 
	C80.377327,111.501862 78.386467,106.973251 72.151985,105.269714 
	C64.877350,103.281937 57.271896,102.504860 49.155937,101.088310 
	C48.188026,95.991226 49.670570,88.698418 43.622078,83.414825 
	C42.944714,84.517456 42.441967,85.033585 42.290810,85.637688 
	C41.807365,87.569778 40.918732,89.598305 41.142483,91.475670 
	C42.175171,100.140404 38.369476,103.916512 29.863319,105.195381 
	C24.485184,106.003960 18.860609,108.201462 16.283403,114.515503 
	C16.763826,115.856537 17.408232,116.928970 18.111622,118.363953 
	C19.016489,120.240753 19.528053,122.151695 20.768820,123.197403 
	C25.072884,126.824791 29.411642,130.500809 34.164238,133.476227 
	C37.625160,135.642975 40.809532,137.305435 41.071392,142.064529 
	C41.137413,143.264389 43.286453,145.017685 44.697865,145.265427 
	C45.839645,145.465820 47.397495,143.891190 48.603218,142.900085 
	C49.285950,142.338867 49.630947,141.366791 49.876789,140.977570 
	C59.079361,140.977570 68.017715,142.094910 76.503922,140.616623 
	C83.046066,139.477005 89.952278,136.186646 95.054771,131.898788 
	C105.953804,122.739868 105.978973,108.934357 95.820763,96.303001 
	C85.660645,83.669266 72.660873,75.356300 57.314095,69.464096 
	C45.503815,64.929695 33.892838,61.563046 21.406837,62.131569 
	C13.957139,62.470776 5.986233,62.709835 1.000000,70.000000 
	C1.000000,47.046673 1.000000,24.093346 1.000000,1.000000 
	C49.687477,1.000000 98.375076,1.000000 147.506439,1.210351 
	C147.950180,1.420701 147.914917,1.842872 147.589874,1.882768 
	C146.836456,1.996329 146.408096,2.069993 145.742126,2.094003 
	C145.504532,2.044347 145.034195,2.164588 144.711456,2.112661 
	C143.578613,2.346576 142.768509,2.632418 141.626907,2.867268 
	C140.860626,2.911355 140.425842,3.006436 139.746643,3.054147 
	C139.502213,3.006778 139.023270,3.143011 138.701721,3.099467 
	C137.580276,3.355743 136.780396,3.655564 135.579529,3.916991 
	C132.136017,4.634318 129.093506,5.390038 125.693817,6.136093 
	C123.559990,6.783007 121.783318,7.439588 119.646103,8.095438 
	C117.331406,9.037427 115.377266,9.980146 113.069801,10.862638 
	C108.844391,12.600563 104.972298,14.398715 100.765930,16.268307 
	C97.947662,17.880941 95.463684,19.422134 92.655533,21.075357 
	C89.210808,23.442780 86.090248,25.698174 82.666000,28.090275 
	C80.197861,30.126299 78.033409,32.025616 75.570282,34.067848 
	C72.445000,37.109554 69.618401,40.008347 66.515381,43.083725 
	C61.965157,48.402653 57.691368,53.544994 53.417576,58.687336 
	C53.736668,59.421265 54.055759,60.155193 54.374855,60.889126 
	C56.587471,60.732948 59.644444,61.433067 60.844368,60.249878 
	C63.717030,57.417297 65.715973,53.698635 68.347267,50.132683 
	C70.759460,47.644051 72.891983,45.360397 75.323257,42.923897 
	C78.788910,39.884930 81.955826,36.998810 85.424225,33.969086 
	C88.176277,31.976931 90.626839,30.128382 93.411621,28.168318 
	C96.820435,26.087854 99.895035,24.118906 103.328033,22.071627 
	C107.810905,20.008766 111.935387,18.024239 116.372894,16.015488 
	C117.824226,15.537950 118.962524,15.084637 120.477310,14.518456 
	C123.230667,13.601768 125.607559,12.797948 128.366119,11.998104 
	C131.165665,11.332400 133.583511,10.662719 136.359314,10.028007 
	C137.846848,9.732496 138.976471,9.402017 140.524261,9.111933 
	C143.961716,8.728317 146.980972,8.304306 150.403290,7.930598 
	C151.881927,7.907294 152.957520,7.833686 154.495575,7.814248 
	C160.303040,7.867981 165.648071,7.867544 171.252563,7.914988 
	C171.683640,7.924133 171.855225,7.885398 172.435654,7.931505 
	C177.238968,8.629478 181.633408,9.242610 186.397522,9.969210 
	C190.515350,11.024223 194.263489,11.965768 198.337494,13.047766 
	C200.448868,13.762104 202.234406,14.335987 204.335266,15.080180 
	C209.229767,17.222925 213.808960,19.195360 218.605957,21.454239 
	C221.040955,22.901861 223.258163,24.063038 225.680054,25.510933 
	C230.267426,28.830347 234.650085,31.863041 239.231628,35.165386 
	C245.584137,41.638382 251.737793,47.841728 257.979126,54.377777 
	C263.374634,63.474308 268.682465,72.238136 274.050659,81.393684 
	C276.264740,82.241562 278.418488,82.697716 281.940521,83.443672 
	C280.083405,79.295731 278.908020,76.670410 277.629089,73.718651 
	C272.007965,64.926178 266.490417,56.460152 260.851440,47.671780 
	C254.193039,41.127174 247.656082,34.904915 240.961975,28.394840 
	C237.235107,25.717520 233.665390,23.328011 229.887421,20.654402 
	C226.782867,18.829573 223.886566,17.288843 220.785950,15.477374 
	C216.168655,13.341284 211.755661,11.475934 207.337524,9.627373 
	C207.332352,9.644163 207.302200,9.657366 207.061600,9.398175 
	C205.228271,8.700819 203.635544,8.262653 201.792603,7.563043 
	C198.357040,6.522141 195.171707,5.742684 191.794754,4.810920 
	C191.269791,4.458424 190.968262,4.498435 190.421661,4.495090 
	C189.103699,4.101979 188.062622,3.992426 186.722748,3.642303 
	C182.615982,2.601156 178.807983,1.800579 175.000000,1.000001 
	C218.587265,1.000000 262.174530,1.000000 306.000000,1.000000 
	C306.000000,37.353882 306.000000,73.708282 305.619995,110.347244 
	C298.826233,110.346848 292.412506,110.061890 285.934723,109.774094 
	C285.308411,105.008301 284.722076,100.393761 284.090942,95.785347 
	C283.405762,90.782539 282.326050,90.194305 276.761108,92.043716 
	C277.034515,93.753433 277.480103,95.521317 277.570526,97.307182 
	C277.790100,101.644913 277.844543,105.991020 277.505493,110.257935 
	C272.227417,110.176636 267.390533,109.936928 262.603851,110.321892 
	C261.325165,110.424721 260.200104,112.437401 259.004517,113.573288 
	C260.181396,114.726204 261.294434,116.787010 262.546234,116.875061 
	C268.002502,117.258850 273.499115,117.069092 279.014954,117.548035 
	C278.967896,122.644005 278.930298,127.280914 278.786316,131.914520 
	C278.722229,133.976379 277.616699,136.356979 281.210724,136.593842 
	C284.369873,136.802032 285.222748,134.947083 285.401062,132.378067 
	C285.751556,127.328232 286.047211,122.274597 286.379578,117.000000 
	C293.124847,117.000000 299.562439,117.000000 306.000000,117.000000 
	C306.000000,133.280624 306.000000,149.561234 306.000000,166.000000 
	C277.312622,166.000000 248.624969,166.000000 219.591919,165.670685 
	C221.704666,155.485809 224.162827,145.630280 226.576096,135.954727 
	C241.062973,137.454559 253.535446,121.676239 250.076431,108.908150 
	C249.252243,105.865845 248.625168,103.189476 243.697281,103.490417 
	C239.494537,103.747093 236.935150,105.550194 234.572495,108.029884 
	C230.606567,112.192314 227.074448,116.768089 223.359787,121.169937 
	C223.671158,117.576645 224.824951,114.283020 226.237137,111.104195 
	C227.734726,107.733055 229.477768,104.470947 231.113632,101.161232 
	C228.961212,100.762054 227.450638,100.819023 226.697388,101.603333 
	C220.918610,107.620468 215.566452,114.635727 217.316269,123.110390 
	C218.721924,129.918274 216.617966,135.127808 214.506500,140.855270 
	C213.592331,143.334976 212.795151,145.893478 212.296997,148.483917 
	C211.036469,155.038818 210.712875,161.432480 217.000000,166.000000 
M124.214447,119.962929 
	C118.759377,121.343765 117.616264,125.623253 121.586189,129.802429 
	C127.255417,135.770462 140.038010,137.401230 147.177368,133.114929 
	C151.395233,130.582626 152.829727,126.757103 152.363190,122.089119 
	C151.882034,117.274948 148.957932,114.719727 144.350159,113.888451 
	C142.226959,113.505409 140.103363,113.102104 137.964020,112.835823 
	C133.407257,112.268646 128.840088,111.784996 124.277184,111.267113 
	C124.293587,110.803131 124.309990,110.339157 124.326393,109.875183 
	C125.396446,109.569550 126.450188,109.087700 127.539215,108.986862 
	C134.660782,108.327515 141.806625,107.888557 148.902908,107.032463 
	C150.352371,106.857590 151.625092,105.217918 152.979294,104.253479 
	C151.750198,103.181656 150.538406,101.210823 149.289139,101.186783 
	C142.217804,101.050713 135.096130,100.992699 128.080200,101.739952 
	C125.194542,102.047287 121.989067,103.910515 119.942261,106.039909 
	C118.406258,107.637894 117.794685,110.891411 118.126900,113.213997 
	C118.309387,114.489807 121.201599,115.597763 123.048317,116.346794 
	C124.546692,116.954521 126.308006,116.914009 127.532867,117.615150 
	C126.680130,118.361618 125.827400,119.108086 124.214447,119.962929 
M172.059402,114.440491 
	C170.059280,111.586891 168.201340,108.619339 166.026474,105.905785 
	C162.558228,101.578468 159.471085,102.011986 158.188095,107.478401 
	C156.644760,114.054123 155.792145,120.841507 155.279892,127.585815 
	C155.068848,130.364594 154.670197,135.089951 159.052368,134.910675 
	C162.945602,134.751404 163.000992,130.541275 163.027924,127.277679 
	C163.060059,123.382126 163.035492,119.486099 163.035492,115.590279 
	C167.340759,120.417908 170.119034,125.487885 173.497894,130.119736 
	C174.641403,131.687302 177.576569,133.236801 179.201965,132.830475 
	C181.138367,132.346405 183.376236,130.023117 184.035233,128.020172 
	C186.437180,120.719711 185.907104,113.277092 183.299591,106.076355 
	C181.610428,101.411713 179.138092,97.256805 172.873230,94.558167 
	C174.915558,104.337128 176.728745,113.018951 178.541946,121.700783 
	C177.992538,121.840767 177.443146,121.980751 176.893738,122.120735 
	C175.397675,119.775055 173.901627,117.429382 172.059402,114.440491 
M216.175751,108.047462 
	C218.390961,105.579506 217.043091,101.349792 213.124283,100.819481 
	C204.759567,99.687531 196.516663,101.022385 186.957565,103.931351 
	C190.000320,106.372139 191.937775,107.926292 194.500946,109.982376 
	C189.021255,114.372086 188.475815,120.994080 187.659454,127.465271 
	C186.908112,133.420990 191.094238,138.993484 196.085541,137.692215 
	C201.547302,136.268295 206.607376,133.206619 211.705887,130.592224 
	C212.460022,130.205521 212.824036,128.298126 212.659225,127.200813 
	C212.577271,126.654984 210.896576,126.019592 209.923706,125.993279 
	C205.278229,125.867668 200.627457,125.936989 195.946304,125.936989 
	C195.900940,121.502937 198.093811,119.156441 203.195328,119.991241 
	C204.165588,120.150009 205.189194,119.959816 206.187576,119.973740 
	C210.144226,120.028908 212.238525,118.655060 210.487793,113.872345 
	C207.178284,113.872345 203.784988,113.872345 200.417877,113.872345 
	C200.408142,110.014091 202.172928,108.966019 205.429260,108.997910 
	C208.734421,109.030281 212.045761,108.430489 216.175751,108.047462 
M126.560173,71.967178 
	C121.490486,66.820938 115.330582,68.923294 110.248337,70.806351 
	C99.812759,74.672905 97.616760,80.478432 100.848625,91.197144 
	C100.988876,91.662292 100.962967,92.184448 100.972893,92.680870 
	C101.042366,96.156769 102.662125,96.935295 105.741615,95.582100 
	C106.695152,95.163086 107.869263,94.943855 108.899704,95.049492 
	C117.691589,95.950684 124.584259,91.993965 129.776047,85.655418 
	C134.892166,79.409225 134.063232,74.673462 126.560173,71.967178 
M113.625473,105.187454 
	C112.642899,103.865417 111.660316,102.543381 109.900589,100.175713 
	C108.964355,103.268303 108.042694,105.051704 107.936584,106.882362 
	C107.486176,114.653076 107.200165,122.436012 107.018379,130.218307 
	C106.943733,133.413666 107.698250,136.622269 111.845200,136.149979 
	C115.416046,135.743286 115.392715,132.579941 115.254715,129.847275 
	C114.853188,121.896202 114.346214,113.950455 113.625473,105.187454 
z"/>
<path fill="#141E52" opacity="1.000000" stroke="none" 
	d="
M1.000000,70.375000 
	C5.986233,62.709835 13.957139,62.470776 21.406837,62.131569 
	C33.892838,61.563046 45.503815,64.929695 57.314095,69.464096 
	C72.660873,75.356300 85.660645,83.669266 95.820763,96.303001 
	C105.978973,108.934357 105.953804,122.739868 95.054771,131.898788 
	C89.952278,136.186646 83.046066,139.477005 76.503922,140.616623 
	C68.017715,142.094910 59.079361,140.977570 49.876789,140.977570 
	C49.630947,141.366791 49.285950,142.338867 48.603218,142.900085 
	C47.397495,143.891190 45.839645,145.465820 44.697865,145.265427 
	C43.286453,145.017685 41.137413,143.264389 41.071392,142.064529 
	C40.809532,137.305435 37.625160,135.642975 34.164238,133.476227 
	C29.411642,130.500809 25.072884,126.824791 20.768820,123.197403 
	C19.528053,122.151695 19.016489,120.240753 18.339317,118.201859 
	C25.048340,122.695999 31.356464,128.111771 39.716759,130.296600 
	C39.716759,123.520378 39.716759,116.979706 39.716759,109.419472 
	C32.700684,111.228622 26.208883,112.951912 19.682638,114.533043 
	C18.685841,114.774544 17.529783,114.358704 16.447386,114.246895 
	C18.860609,108.201462 24.485184,106.003960 29.863319,105.195381 
	C38.369476,103.916512 42.175171,100.140404 41.142483,91.475670 
	C40.918732,89.598305 41.807365,87.569778 42.290810,85.637688 
	C42.441967,85.033585 42.944714,84.517456 43.622078,83.414825 
	C49.670570,88.698418 48.188026,95.991226 49.155937,101.088310 
	C57.271896,102.504860 64.877350,103.281937 72.151985,105.269714 
	C78.386467,106.973251 80.377327,111.501862 78.383537,116.335464 
	C76.357643,121.246887 73.633461,122.197525 68.194252,119.741425 
	C69.694832,118.484917 71.133133,117.280556 73.296616,115.468964 
	C65.528641,110.726120 57.496704,110.740364 49.417038,109.859505 
	C49.417038,117.144157 49.265686,124.092613 49.580711,131.019867 
	C49.627796,132.055328 51.839584,133.802963 53.090916,133.840088 
	C60.607960,134.063034 68.187660,134.410538 75.648247,133.694260 
	C83.700775,132.921143 92.618530,123.721481 93.318886,115.875076 
	C93.591949,112.815826 92.675064,109.404152 91.459175,106.505821 
	C88.217781,98.779266 82.476738,92.943748 75.768684,88.139648 
	C56.769871,74.533325 35.655613,67.798058 12.174063,69.028984 
	C11.343485,69.072533 10.497539,69.081863 9.690303,69.254585 
	C8.272359,69.557961 6.878853,69.975555 4.845157,70.511253 
	C6.115592,71.025093 6.863118,71.274429 7.559979,71.624588 
	C8.222747,71.957619 8.832576,72.396011 9.465680,72.788078 
	C9.354533,73.318214 9.243386,73.848343 9.132239,74.378479 
	C6.651039,73.990547 4.169839,73.602608 1.344319,73.107338 
	C1.000000,72.250000 1.000000,71.500000 1.000000,70.375000 
z"/>
<path fill="#131E52" opacity="1.000000" stroke="none" 
	d="
M217.333328,166.000000 
	C210.712875,161.432480 211.036469,155.038818 212.296997,148.483917 
	C212.795151,145.893478 213.592331,143.334976 214.506500,140.855270 
	C216.617966,135.127808 218.721924,129.918274 217.316269,123.110390 
	C215.566452,114.635727 220.918610,107.620468 226.697388,101.603333 
	C227.450638,100.819023 228.961212,100.762054 231.113632,101.161232 
	C229.477768,104.470947 227.734726,107.733055 226.237137,111.104195 
	C224.824951,114.283020 223.671158,117.576645 223.359787,121.169937 
	C227.074448,116.768089 230.606567,112.192314 234.572495,108.029884 
	C236.935150,105.550194 239.494537,103.747093 243.697281,103.490417 
	C248.625168,103.189476 249.252243,105.865845 250.076431,108.908150 
	C253.535446,121.676239 241.062973,137.454559 226.576096,135.954727 
	C224.162827,145.630280 221.704666,155.485809 219.123260,165.670685 
	C218.555557,166.000000 218.111099,166.000000 217.333328,166.000000 
M233.937164,126.231773 
	C242.696304,123.823853 247.284851,117.247299 245.024475,108.975845 
	C239.623306,113.973557 235.582947,119.359390 231.911804,125.792473 
	C231.804947,126.137833 231.698074,126.483185 231.591217,126.828552 
	C232.121246,126.616348 232.651260,126.404144 233.937164,126.231773 
z"/>
<path fill="#172254" opacity="1.000000" stroke="none" 
	d="
M306.000000,116.571533 
	C299.562439,117.000000 293.124847,117.000000 286.379578,117.000000 
	C286.047211,122.274597 285.751556,127.328232 285.401062,132.378067 
	C285.222748,134.947083 284.369873,136.802032 281.210724,136.593842 
	C277.616699,136.356979 278.722229,133.976379 278.786316,131.914520 
	C278.930298,127.280914 278.967896,122.644005 278.747894,117.223373 
	C273.986237,116.286087 269.514587,116.266434 265.071320,115.901482 
	C263.726440,115.791023 262.460052,114.724609 261.157715,114.096054 
	C262.391815,113.398132 263.580688,112.218941 264.868988,112.097878 
	C267.999573,111.803680 271.187653,112.154877 274.328949,111.924355 
	C275.573334,111.833023 276.755188,110.889336 277.965515,110.333740 
	C277.844543,105.991020 277.790100,101.644913 277.570526,97.307182 
	C277.480103,95.521317 277.034515,93.753433 276.761108,92.043716 
	C282.326050,90.194305 283.405762,90.782539 284.090942,95.785347 
	C284.722076,100.393761 285.308411,105.008301 285.934723,109.774094 
	C292.412506,110.061890 298.826233,110.346848 305.619995,110.815903 
	C306.000000,112.714355 306.000000,114.428719 306.000000,116.571533 
z"/>
<path fill="#0F569F" opacity="1.000000" stroke="none" 
	d="
M186.027863,9.855740 
	C181.633408,9.242610 177.238968,8.629478 172.706055,7.681106 
	C174.434570,6.596302 176.301544,5.846739 178.727386,4.872803 
	C175.596542,3.070450 173.798264,2.035226 172.000000,1.000001 
	C172.750000,1.000000 173.500000,1.000000 174.625000,1.000001 
	C178.807983,1.800579 182.615982,2.601156 186.869888,3.909211 
	C187.875122,4.614096 188.434418,4.811504 188.994614,5.379713 
	C188.006287,7.118922 187.017075,8.487330 186.027863,9.855740 
z"/>
<path fill="#0862A9" opacity="1.000000" stroke="none" 
	d="
M171.583344,1.000001 
	C173.798264,2.035226 175.596542,3.070450 178.727386,4.872803 
	C176.301544,5.846739 174.434570,6.596302 172.297195,7.596264 
	C171.855225,7.885398 171.683640,7.924133 170.963272,7.663910 
	C168.658554,6.793756 166.902588,6.222559 165.146637,5.651364 
	C165.764420,4.100910 166.382217,2.550455 167.000000,1.000000 
	C168.388885,1.000000 169.777786,1.000000 171.583344,1.000001 
z"/>
<path fill="#237CB6" opacity="1.000000" stroke="none" 
	d="
M166.562500,1.000000 
	C166.382217,2.550455 165.764420,4.100910 165.146637,5.651364 
	C166.902588,6.222559 168.658554,6.793756 170.703796,7.616029 
	C165.648071,7.867544 160.303040,7.867981 154.712463,7.570905 
	C156.311264,5.182262 158.155640,3.091131 160.000000,1.000000 
	C162.041672,1.000000 164.083328,1.000000 166.562500,1.000000 
z"/>
<path fill="#007AB6" opacity="1.000000" stroke="none" 
	d="
M159.539368,1.000000 
	C158.155640,3.091131 156.311264,5.182262 154.250000,7.516736 
	C152.957520,7.833686 151.881927,7.907294 150.443970,7.588674 
	C150.646866,6.100341 151.212128,5.004238 151.774796,3.913134 
	C150.325043,3.135552 149.119980,2.489214 147.914917,1.842874 
	C147.914917,1.842872 147.950180,1.420701 147.975098,1.210351 
	C151.692902,1.000000 155.385818,1.000000 159.539368,1.000000 
z"/>
<path fill="#141E52" opacity="1.000000" stroke="none" 
	d="
M127.952705,117.160995 
	C126.308006,116.914009 124.546692,116.954521 123.048317,116.346794 
	C121.201599,115.597763 118.309387,114.489807 118.126900,113.213997 
	C117.794685,110.891411 118.406258,107.637894 119.942261,106.039909 
	C121.989067,103.910515 125.194542,102.047287 128.080200,101.739952 
	C135.096130,100.992699 142.217804,101.050713 149.289139,101.186783 
	C150.538406,101.210823 151.750198,103.181656 152.979294,104.253479 
	C151.625092,105.217918 150.352371,106.857590 148.902908,107.032463 
	C141.806625,107.888557 134.660782,108.327515 127.539215,108.986862 
	C126.450188,109.087700 125.396446,109.569550 124.326393,109.875183 
	C124.309990,110.339157 124.293587,110.803131 124.277184,111.267113 
	C128.840088,111.784996 133.407257,112.268646 137.964020,112.835823 
	C140.103363,113.102104 142.226959,113.505409 144.350159,113.888451 
	C148.957932,114.719727 151.882034,117.274948 152.363190,122.089119 
	C152.829727,126.757103 151.395233,130.582626 147.177368,133.114929 
	C140.038010,137.401230 127.255417,135.770462 121.586189,129.802429 
	C117.616264,125.623253 118.759377,121.343765 125.015015,119.971375 
	C131.736191,118.682205 137.406570,119.038361 142.914703,122.609863 
	C142.181992,123.214912 141.587387,123.705902 140.583466,124.244286 
	C134.213455,124.003418 128.252777,123.715149 121.887360,123.407303 
	C122.923126,126.796974 124.886894,129.263229 128.254242,128.895248 
	C132.673859,128.412247 136.991760,126.998535 141.731842,125.971161 
	C143.804764,124.854401 145.499237,123.751572 147.298721,122.580399 
	C143.328461,118.401253 137.771988,116.962990 127.952705,117.160995 
z"/>
<path fill="#141F53" opacity="1.000000" stroke="none" 
	d="
M172.232483,114.762100 
	C173.901627,117.429382 175.397675,119.775055 176.893738,122.120735 
	C177.443146,121.980751 177.992538,121.840767 178.541946,121.700783 
	C176.728745,113.018951 174.915558,104.337128 172.873230,94.558167 
	C179.138092,97.256805 181.610428,101.411713 183.299591,106.076355 
	C185.907104,113.277092 186.437180,120.719711 184.035233,128.020172 
	C183.376236,130.023117 181.138367,132.346405 179.201965,132.830475 
	C177.576569,133.236801 174.641403,131.687302 173.497894,130.119736 
	C170.119034,125.487885 167.340759,120.417908 163.035492,115.590279 
	C163.035492,119.486099 163.060059,123.382126 163.027924,127.277679 
	C163.000992,130.541275 162.945602,134.751404 159.052368,134.910675 
	C154.670197,135.089951 155.068848,130.364594 155.279892,127.585815 
	C155.792145,120.841507 156.644760,114.054123 158.188095,107.478401 
	C159.471085,102.011986 162.558228,101.578468 166.026474,105.905785 
	C168.201340,108.619339 170.059280,111.586891 172.232483,114.762100 
z"/>
<path fill="#141F52" opacity="1.000000" stroke="none" 
	d="
M215.765076,108.077515 
	C212.045761,108.430489 208.734421,109.030281 205.429260,108.997910 
	C202.172928,108.966019 200.408142,110.014091 200.417877,113.872345 
	C203.784988,113.872345 207.178284,113.872345 210.487793,113.872345 
	C212.238525,118.655060 210.144226,120.028908 206.187576,119.973740 
	C205.189194,119.959816 204.165588,120.150009 203.195328,119.991241 
	C198.093811,119.156441 195.900940,121.502937 195.946304,125.936989 
	C200.627457,125.936989 205.278229,125.867668 209.923706,125.993279 
	C210.896576,126.019592 212.577271,126.654984 212.659225,127.200813 
	C212.824036,128.298126 212.460022,130.205521 211.705887,130.592224 
	C206.607376,133.206619 201.547302,136.268295 196.085541,137.692215 
	C191.094238,138.993484 186.908112,133.420990 187.659454,127.465271 
	C188.475815,120.994080 189.021255,114.372086 194.500946,109.982376 
	C191.937775,107.926292 190.000320,106.372139 186.957565,103.931351 
	C196.516663,101.022385 204.759567,99.687531 213.124283,100.819481 
	C217.043091,101.349792 218.390961,105.579506 215.765076,108.077515 
z"/>
<path fill="#131E52" opacity="1.000000" stroke="none" 
	d="
M126.926254,72.062622 
	C134.063232,74.673462 134.892166,79.409225 129.776047,85.655418 
	C124.584259,91.993965 117.691589,95.950684 108.899704,95.049492 
	C107.869263,94.943855 106.695152,95.163086 105.741615,95.582100 
	C102.662125,96.935295 101.042366,96.156769 100.972893,92.680870 
	C100.962967,92.184448 100.988876,91.662292 100.848625,91.197144 
	C97.616760,80.478432 99.812759,74.672905 110.248337,70.806351 
	C115.330582,68.923294 121.490486,66.820938 126.926254,72.062622 
M109.873039,76.452919 
	C106.334290,78.425926 103.027519,80.563400 102.919029,86.437851 
	C106.171410,82.745468 108.646973,79.934998 111.548553,77.006897 
	C111.765526,76.820267 111.982498,76.633636 112.199463,76.446999 
	C111.651428,76.380981 111.103386,76.314964 109.873039,76.452919 
M127.623001,81.743927 
	C128.718475,78.546509 127.928940,76.359146 124.226601,76.456718 
	C120.026596,76.567413 111.204018,85.144737 110.186081,90.255669 
	C116.741180,89.122795 122.733322,87.539558 127.623001,81.743927 
z"/>
<path fill="#F9F9FA" opacity="1.000000" stroke="none" 
	d="
M16.283403,114.515503 
	C17.529783,114.358704 18.685841,114.774544 19.682638,114.533043 
	C26.208883,112.951912 32.700684,111.228622 39.716759,109.419472 
	C39.716759,116.979706 39.716759,123.520378 39.716759,130.296600 
	C31.356464,128.111771 25.048340,122.695999 18.280334,117.839310 
	C17.408232,116.928970 16.763826,115.856537 16.283403,114.515503 
z"/>
<path fill="#131E52" opacity="1.000000" stroke="none" 
	d="
M113.753036,105.595032 
	C114.346214,113.950455 114.853188,121.896202 115.254715,129.847275 
	C115.392715,132.579941 115.416046,135.743286 111.845200,136.149979 
	C107.698250,136.622269 106.943733,133.413666 107.018379,130.218307 
	C107.200165,122.436012 107.486176,114.653076 107.936584,106.882362 
	C108.042694,105.051704 108.964355,103.268303 109.900589,100.175713 
	C111.660316,102.543381 112.642899,103.865417 113.753036,105.595032 
z"/>
<path fill="#13205D" opacity="1.000000" stroke="none" 
	d="
M260.972839,47.994125 
	C266.490417,56.460152 272.007965,64.926178 277.335052,73.925018 
	C276.093109,76.639206 275.041687,78.820587 273.990265,81.001968 
	C268.682465,72.238136 263.374634,63.474308 258.272308,54.135353 
	C259.309479,51.704857 260.141144,49.849487 260.972839,47.994125 
z"/>
<path fill="#11236F" opacity="1.000000" stroke="none" 
	d="
M260.851440,47.671776 
	C260.141144,49.849487 259.309479,51.704857 258.184631,53.802650 
	C251.737793,47.841728 245.584137,41.638382 239.224564,34.786247 
	C239.718796,32.319187 240.418961,30.500919 241.119125,28.682652 
	C247.656082,34.904915 254.193039,41.127174 260.851440,47.671776 
z"/>
<path fill="#A6F4F9" opacity="1.000000" stroke="none" 
	d="
M68.067604,50.337654 
	C65.715973,53.698635 63.717030,57.417297 60.844368,60.249878 
	C59.644444,61.433067 56.587471,60.732948 54.374855,60.889126 
	C54.055759,60.155193 53.736668,59.421265 53.417576,58.687336 
	C57.691368,53.544994 61.965157,48.402653 66.846939,43.345928 
	C67.659157,45.733585 67.863380,48.035618 68.067604,50.337654 
z"/>
<path fill="#11257A" opacity="1.000000" stroke="none" 
	d="
M240.961975,28.394838 
	C240.418961,30.500919 239.718796,32.319187 239.025696,34.516594 
	C234.650085,31.863041 230.267426,28.830347 226.047043,25.430740 
	C227.504791,23.688719 228.800247,22.313614 230.095688,20.938503 
	C233.665390,23.328011 237.235107,25.717520 240.961975,28.394838 
z"/>
<path fill="#123A8A" opacity="1.000000" stroke="none" 
	d="
M218.388153,21.167795 
	C213.808960,19.195360 209.229767,17.222925 204.568237,14.842742 
	C206.223343,14.531510 207.960785,14.628028 210.824814,14.787127 
	C209.178879,12.340282 208.260773,10.975433 207.342682,9.610584 
	C211.755661,11.475934 216.168655,13.341284 220.786560,15.921143 
	C220.123718,18.146366 219.255936,19.657082 218.388153,21.167795 
z"/>
<path fill="#4BB8D8" opacity="1.000000" stroke="none" 
	d="
M101.100212,16.196867 
	C104.972298,14.398715 108.844391,12.600563 113.416290,10.888447 
	C114.764015,12.662891 115.411942,14.351302 116.059868,16.039713 
	C111.935387,18.024239 107.810905,20.008766 103.349792,21.739916 
	C102.375511,19.723314 101.737862,17.960091 101.100212,16.196867 
z"/>
<path fill="#71D3E6" opacity="1.000000" stroke="none" 
	d="
M93.077408,28.279835 
	C90.626839,30.128382 88.176277,31.976931 85.135757,33.731724 
	C84.020424,31.743170 83.495049,29.848368 82.969681,27.953568 
	C86.090248,25.698174 89.210808,23.442780 92.795685,21.408701 
	C93.199127,23.846622 93.138268,26.063229 93.077408,28.279835 
z"/>
<path fill="#8CE6F1" opacity="1.000000" stroke="none" 
	d="
M68.347267,50.132679 
	C67.863380,48.035618 67.659157,45.733585 67.123367,43.169342 
	C69.618401,40.008347 72.445000,37.109554 75.865036,34.298882 
	C75.980484,37.283585 75.502502,40.180164 75.024521,43.076744 
	C72.891983,45.360397 70.759460,47.644051 68.347267,50.132679 
z"/>
<path fill="#62C8E0" opacity="1.000000" stroke="none" 
	d="
M93.411621,28.168320 
	C93.138268,26.063229 93.199127,23.846622 93.119843,21.296673 
	C95.463684,19.422134 97.947662,17.880941 100.765930,16.268307 
	C101.737862,17.960091 102.375511,19.723314 102.991402,21.818249 
	C99.895035,24.118906 96.820435,26.087854 93.411621,28.168320 
z"/>
<path fill="#114592" opacity="1.000000" stroke="none" 
	d="
M207.337524,9.627374 
	C208.260773,10.975433 209.178879,12.340282 210.824814,14.787127 
	C207.960785,14.628028 206.223343,14.531510 204.252930,14.672432 
	C202.234406,14.335987 200.448868,13.762104 198.475433,12.743668 
	C197.841858,10.745538 197.820251,8.802500 196.842361,7.737728 
	C195.640991,6.429643 193.641098,5.854945 191.986374,4.963226 
	C195.171707,5.742684 198.357040,6.522141 201.970337,7.882744 
	C204.032944,8.861714 205.667572,9.259539 207.302200,9.657364 
	C207.302200,9.657366 207.332352,9.644163 207.337524,9.627374 
z"/>
<path fill="#83DFEE" opacity="1.000000" stroke="none" 
	d="
M75.323257,42.923897 
	C75.502502,40.180164 75.980484,37.283585 76.163712,34.155968 
	C78.033409,32.025616 80.197861,30.126299 82.666000,28.090275 
	C83.495049,29.848368 84.020424,31.743170 84.834267,33.875328 
	C81.955826,36.998810 78.788910,39.884930 75.323257,42.923897 
z"/>
<path fill="#000947" opacity="1.000000" stroke="none" 
	d="
M277.505493,110.257935 
	C276.755188,110.889336 275.573334,111.833023 274.328949,111.924355 
	C271.187653,112.154877 267.999573,111.803680 264.868988,112.097878 
	C263.580688,112.218941 262.391815,113.398132 261.157715,114.096054 
	C262.460052,114.724609 263.726440,115.791023 265.071320,115.901482 
	C269.514587,116.266434 273.986237,116.286087 278.714050,116.762962 
	C273.499115,117.069092 268.002502,117.258850 262.546234,116.875061 
	C261.294434,116.787010 260.181396,114.726204 259.004517,113.573288 
	C260.200104,112.437401 261.325165,110.424721 262.603851,110.321892 
	C267.390533,109.936928 272.227417,110.176636 277.505493,110.257935 
z"/>
<path fill="#DEDFE4" opacity="1.000000" stroke="none" 
	d="
M127.742783,117.388077 
	C137.771988,116.962990 143.328461,118.401253 147.298721,122.580399 
	C145.499237,123.751572 143.804764,124.854401 141.642609,125.523895 
	C141.114212,124.792671 141.053513,124.494774 140.992798,124.196884 
	C141.587387,123.705902 142.181992,123.214912 142.914703,122.609863 
	C137.406570,119.038361 131.736191,118.682205 125.395119,119.917183 
	C125.827400,119.108086 126.680130,118.361618 127.742783,117.388077 
z"/>
<path fill="#1796C5" opacity="1.000000" stroke="none" 
	d="
M126.050987,6.145760 
	C129.093506,5.390038 132.136017,4.634318 135.715393,4.242992 
	C136.168640,6.402603 136.085007,8.197821 136.001373,9.993038 
	C133.583511,10.662719 131.165665,11.332400 128.219696,11.801672 
	C129.853912,8.968041 127.582710,7.668091 126.050987,6.145760 
z"/>
<path fill="#0885BC" opacity="1.000000" stroke="none" 
	d="
M147.589874,1.882769 
	C149.119980,2.489214 150.325043,3.135552 151.774796,3.913134 
	C151.212128,5.004238 150.646866,6.100341 150.040924,7.538370 
	C146.980972,8.304306 143.961716,8.728317 140.361404,8.886763 
	C140.506378,6.720215 141.232391,4.819235 141.958405,2.918258 
	C142.768509,2.632418 143.578613,2.346576 144.801300,2.255875 
	C145.469162,2.348563 145.724442,2.246110 145.979721,2.143658 
	C146.408096,2.069993 146.836456,1.996329 147.589874,1.882769 
z"/>
<path fill="#0F4D99" opacity="1.000000" stroke="none" 
	d="
M191.794754,4.810918 
	C193.641098,5.854945 195.640991,6.429643 196.842361,7.737728 
	C197.820251,8.802500 197.841858,10.745538 198.149597,12.603212 
	C194.263489,11.965768 190.515350,11.024223 186.397522,9.969209 
	C187.017075,8.487330 188.006287,7.118922 189.422150,5.331705 
	C190.132065,4.868145 190.415298,4.823396 190.698547,4.778646 
	C190.968262,4.498435 191.269791,4.458424 191.794754,4.810918 
z"/>
<path fill="#123384" opacity="1.000000" stroke="none" 
	d="
M218.605957,21.454239 
	C219.255936,19.657082 220.123718,18.146366 220.990891,16.191883 
	C223.886566,17.288843 226.782867,18.829573 229.887421,20.654404 
	C228.800247,22.313614 227.504791,23.688719 225.842346,25.144020 
	C223.258163,24.063038 221.040955,22.901861 218.605957,21.454239 
z"/>
<path fill="#2FA5CD" opacity="1.000000" stroke="none" 
	d="
M125.693817,6.136094 
	C127.582710,7.668091 129.853912,8.968041 127.838013,11.797695 
	C125.607559,12.797948 123.230667,13.601768 120.454651,14.042238 
	C120.039223,11.817982 120.022934,9.957074 120.006653,8.096169 
	C121.783318,7.439588 123.559990,6.783007 125.693817,6.136094 
z"/>
<path fill="#101950" opacity="1.000000" stroke="none" 
	d="
M274.050659,81.393692 
	C275.041687,78.820587 276.093109,76.639206 277.438599,74.251465 
	C278.908020,76.670410 280.083405,79.295731 281.940521,83.443672 
	C278.418488,82.697716 276.264740,82.241562 274.050659,81.393692 
z"/>
<path fill="#39ACD1" opacity="1.000000" stroke="none" 
	d="
M119.646103,8.095438 
	C120.022934,9.957074 120.039223,11.817982 120.078171,14.155106 
	C118.962524,15.084637 117.824226,15.537950 116.372894,16.015488 
	C115.411942,14.351302 114.764015,12.662891 113.769608,10.948673 
	C115.377266,9.980146 117.331406,9.037427 119.646103,8.095438 
z"/>
<path fill="#058FC2" opacity="1.000000" stroke="none" 
	d="
M141.626892,2.867265 
	C141.232391,4.819235 140.506378,6.720215 139.943207,8.846367 
	C138.976471,9.402017 137.846848,9.732496 136.359314,10.028008 
	C136.085007,8.197821 136.168640,6.402603 136.116394,4.281385 
	C136.780396,3.655564 137.580276,3.355743 138.795868,3.245252 
	C139.471420,3.323559 139.731247,3.212537 139.991074,3.101515 
	C140.425842,3.006436 140.860626,2.911355 141.626892,2.867265 
z"/>
<path fill="#123A8A" opacity="1.000000" stroke="none" 
	d="
M207.061600,9.398174 
	C205.667572,9.259539 204.032944,8.861714 202.220566,8.144189 
	C203.635544,8.262653 205.228271,8.700819 207.061600,9.398174 
z"/>
<path fill="#114592" opacity="1.000000" stroke="none" 
	d="
M190.421661,4.495090 
	C190.415298,4.823396 190.132065,4.868145 189.421265,4.960904 
	C188.434418,4.811504 187.875122,4.614096 187.168671,4.149780 
	C188.062622,3.992426 189.103699,4.101979 190.421661,4.495090 
z"/>
<path fill="#0885BC" opacity="1.000000" stroke="none" 
	d="
M139.746643,3.054146 
	C139.731247,3.212537 139.471420,3.323559 139.117432,3.288796 
	C139.023270,3.143011 139.502213,3.006778 139.746643,3.054146 
z"/>
<path fill="#007AB6" opacity="1.000000" stroke="none" 
	d="
M145.742126,2.094002 
	C145.724442,2.246110 145.469162,2.348563 145.124039,2.307802 
	C145.034195,2.164588 145.504532,2.044347 145.742126,2.094002 
z"/>
<path fill="#F7F8F9" opacity="1.000000" stroke="none" 
	d="
M232.316742,125.395866 
	C235.582947,119.359390 239.623306,113.973557 245.024475,108.975845 
	C247.284851,117.247299 242.696304,123.823853 233.348633,126.006813 
	C232.612335,125.653191 232.464539,125.524529 232.316742,125.395866 
z"/>
<path fill="#F7F8F9" opacity="1.000000" stroke="none" 
	d="
M232.970703,125.986900 
	C232.651260,126.404144 232.121246,126.616348 231.591217,126.828552 
	C231.698074,126.483185 231.804947,126.137833 232.114273,125.594170 
	C232.464539,125.524529 232.612335,125.653191 232.970703,125.986900 
z"/>
<path fill="#E9EAEE" opacity="1.000000" stroke="none" 
	d="
M140.583466,124.244286 
	C141.053513,124.494774 141.114212,124.792671 141.264160,125.537827 
	C136.991760,126.998535 132.673859,128.412247 128.254242,128.895248 
	C124.886894,129.263229 122.923126,126.796974 121.887360,123.407303 
	C128.252777,123.715149 134.213455,124.003418 140.583466,124.244286 
z"/>
<path fill="#F6F6F7" opacity="1.000000" stroke="none" 
	d="
M127.386711,82.041840 
	C122.733322,87.539558 116.741180,89.122795 110.186081,90.255669 
	C111.204018,85.144737 120.026596,76.567413 124.226601,76.456718 
	C127.928940,76.359146 128.718475,78.546509 127.386711,82.041840 
z"/>
<path fill="#E9EAED" opacity="1.000000" stroke="none" 
	d="
M111.122543,77.124527 
	C108.646973,79.934998 106.171410,82.745468 102.919029,86.437851 
	C103.027519,80.563400 106.334290,78.425926 110.340584,76.579803 
	C110.912941,76.845970 111.017746,76.985252 111.122543,77.124527 
z"/>
<path fill="#E9EAED" opacity="1.000000" stroke="none" 
	d="
M110.681740,76.477821 
	C111.103386,76.314964 111.651428,76.380981 112.199463,76.447006 
	C111.982498,76.633636 111.765526,76.820267 111.335548,77.065712 
	C111.017746,76.985252 110.912941,76.845970 110.681740,76.477821 
z"/>
</svg>