<svg version="1.1" id="Layer_1" xmlns="http://www.w3.org/2000/svg" xmlns:xlink="http://www.w3.org/1999/xlink" x="0px" y="0px"
	 width="100%" viewBox="0 0 279 239" enable-background="new 0 0 279 239" xml:space="preserve">
<path fill="#989898" opacity="1.000000" stroke="none" 
	d="
M165.000000,240.000000 
	C110.000008,240.000000 55.500011,240.000000 1.000015,240.000000 
	C1.000010,160.333344 1.000010,80.666702 1.000005,1.000036 
	C93.999969,1.000024 186.999939,1.000024 279.999939,1.000012 
	C279.999939,80.666634 279.999939,160.333267 279.999969,239.999939 
	C241.833328,240.000000 203.666672,240.000000 165.000000,240.000000 
M175.375763,222.134064 
	C179.217163,224.460495 182.969330,226.952805 186.919098,229.077759 
	C194.422272,233.114471 201.837936,232.336273 208.520264,227.370209 
	C215.202362,222.404327 218.237015,215.523758 216.315506,207.192184 
	C212.506760,190.677643 208.623383,174.175186 204.380417,157.768692 
	C202.867615,151.919006 204.437363,147.842316 208.866959,144.154205 
	C221.149811,133.927429 233.326416,123.572891 245.528961,113.249855 
	C253.388290,106.601082 255.977478,98.273369 252.910660,89.679123 
	C249.804596,80.974922 242.730881,76.386940 232.447403,75.780609 
	C217.321869,74.888802 202.224930,73.485733 187.094864,72.708046 
	C179.544037,72.319939 175.496048,68.714188 172.859573,61.800732 
	C167.292694,47.203060 161.281693,32.765263 155.046295,18.438833 
	C153.525513,14.944660 150.998505,11.356614 147.961792,9.149645 
	C137.045853,1.216305 122.466522,5.425697 117.183922,17.874834 
	C110.886887,32.714649 104.773651,47.638718 98.936829,62.664593 
	C96.462975,69.033089 92.453033,72.260185 85.610313,72.661583 
	C70.484993,73.548843 55.385258,74.872917 40.259701,75.754921 
	C29.372339,76.389786 22.503395,80.724586 19.303982,89.629669 
	C16.124481,98.479324 18.619780,106.426308 26.964622,113.519585 
	C38.889435,123.655899 50.793373,133.819702 62.870304,143.772675 
	C67.657387,147.717880 69.328346,152.008728 67.663216,158.218552 
	C63.617626,173.305878 60.029575,188.516953 56.340717,203.698471 
	C54.082928,212.990448 55.496212,221.285538 63.569275,227.430038 
	C71.072540,233.140869 79.161667,232.996506 88.686958,227.112366 
	C103.266136,218.106308 117.851974,209.110733 132.387085,200.033997 
	C134.675552,198.604904 136.495422,197.939682 139.151825,199.640182 
	C150.919250,207.173111 162.847000,214.455597 175.375763,222.134064 
z"/>
<path fill="#010101" opacity="1.000000" stroke="none" 
	d="
M175.046249,221.981384 
	C162.847000,214.455597 150.919250,207.173111 139.151825,199.640182 
	C136.495422,197.939682 134.675552,198.604904 132.387085,200.033997 
	C117.851974,209.110733 103.266136,218.106308 88.686958,227.112366 
	C79.161667,232.996506 71.072540,233.140869 63.569275,227.430038 
	C55.496212,221.285538 54.082928,212.990448 56.340717,203.698471 
	C60.029575,188.516953 63.617626,173.305878 67.663216,158.218552 
	C69.328346,152.008728 67.657387,147.717880 62.870304,143.772675 
	C50.793373,133.819702 38.889435,123.655899 26.964622,113.519585 
	C18.619780,106.426308 16.124481,98.479324 19.303982,89.629669 
	C22.503395,80.724586 29.372339,76.389786 40.259701,75.754921 
	C55.385258,74.872917 70.484993,73.548843 85.610313,72.661583 
	C92.453033,72.260185 96.462975,69.033089 98.936829,62.664593 
	C104.773651,47.638718 110.886887,32.714649 117.183922,17.874834 
	C122.466522,5.425697 137.045853,1.216305 147.961792,9.149645 
	C150.998505,11.356614 153.525513,14.944660 155.046295,18.438833 
	C161.281693,32.765263 167.292694,47.203060 172.859573,61.800732 
	C175.496048,68.714188 179.544037,72.319939 187.094864,72.708046 
	C202.224930,73.485733 217.321869,74.888802 232.447403,75.780609 
	C242.730881,76.386940 249.804596,80.974922 252.910660,89.679123 
	C255.977478,98.273369 253.388290,106.601082 245.528961,113.249855 
	C233.326416,123.572891 221.149811,133.927429 208.866959,144.154205 
	C204.437363,147.842316 202.867615,151.919006 204.380417,157.768692 
	C208.623383,174.175186 212.506760,190.677643 216.315506,207.192184 
	C218.237015,215.523758 215.202362,222.404327 208.520264,227.370209 
	C201.837936,232.336273 194.422272,233.114471 186.919098,229.077759 
	C182.969330,226.952805 179.217163,224.460495 175.046249,221.981384 
z"/>
</svg>