<svg version="1.1" id="Layer_1" xmlns="http://www.w3.org/2000/svg" xmlns:xlink="http://www.w3.org/1999/xlink" x="0px" y="0px"
	 width="100%" viewBox="0 0 1143 965" enable-background="new 0 0 1143 965" xml:space="preserve">
<path fill="#000000" opacity="1.000000" stroke="none" 
	d="
M817.000000,966.000000 
	C544.698853,966.000000 272.897675,966.000000 1.048267,966.000000 
	C1.048267,644.403625 1.048267,322.807190 1.048267,1.105383 
	C381.884613,1.105383 762.769287,1.105383 1143.826904,1.105383 
	C1143.826904,322.666595 1143.826904,644.333313 1143.826904,966.000000 
	C1035.140259,966.000000 926.320129,966.000000 817.000000,966.000000 
M791.318848,255.607025 
	C807.521912,264.745117 823.724976,273.883179 840.157837,283.421814 
	C840.355286,283.696838 840.622864,283.822540 841.454041,283.955933 
	C841.619812,284.003906 841.785645,284.051880 842.278137,284.691650 
	C859.499634,298.142212 876.721191,311.592773 894.287781,325.622925 
	C896.514221,327.579346 898.808167,329.464630 900.956665,331.503204 
	C923.813232,353.190063 943.802124,377.324371 962.228699,403.665100 
	C975.794983,424.588898 989.127380,445.778473 998.115356,469.050140 
	C1002.496094,480.392700 1008.995361,483.234528 1019.854797,482.123047 
	C1027.425659,481.348145 1030.055298,478.475342 1026.694824,471.582153 
	C1016.887695,451.464844 1007.553894,431.046326 996.446472,411.655518 
	C987.508972,396.052765 976.259094,381.774536 965.717407,366.320435 
	C961.120300,360.678284 956.580994,354.987854 951.915649,349.402649 
	C935.319824,329.534485 917.035828,311.360687 896.670471,294.365692 
	C885.675964,285.964081 874.825684,277.363678 863.630188,269.239014 
	C857.395386,264.714386 850.585815,260.981842 843.625732,256.363434 
	C833.966736,250.681320 824.442444,244.751205 814.601562,239.403839 
	C807.978882,235.805206 800.908508,233.030365 793.618103,229.340546 
	C790.005249,227.689468 786.477783,225.808975 782.764404,224.428253 
	C768.864502,219.259995 754.903870,214.255157 740.214722,209.042664 
	C730.319458,206.130051 720.545959,202.670975 710.500183,200.434097 
	C695.772095,197.154572 680.896423,194.452988 665.992554,192.076828 
	C656.100220,190.499680 646.062744,189.744507 636.064331,188.945663 
	C626.046204,188.145203 615.995911,187.747467 605.033020,187.078964 
	C593.629700,187.394287 582.217346,187.527145 570.826111,188.088531 
	C563.121704,188.468216 555.415344,189.211456 547.766785,190.222748 
	C537.413635,191.591644 527.057312,193.075775 516.809326,195.062149 
	C506.789368,197.004303 496.903778,199.639267 486.139557,202.021667 
	C485.310089,202.007431 484.420746,201.788208 483.660248,202.010223 
	C474.630615,204.646133 465.540833,207.111938 456.630768,210.109619 
	C449.932617,212.363144 443.471649,215.321579 436.140015,218.023987 
	C411.657959,227.072906 388.247253,238.338303 365.309937,252.219620 
	C363.647125,253.215363 361.918640,254.116776 360.331726,255.221497 
	C345.157928,265.784607 330.008087,276.382111 314.245453,287.245819 
	C313.276459,288.139008 312.317261,289.043091 311.336945,289.923676 
	C303.547394,296.920319 295.753784,303.912506 287.267273,311.023193 
	C286.704834,311.322479 286.009155,311.497955 285.599274,311.939026 
	C273.109406,325.379333 260.137604,338.416321 248.333588,352.436157 
	C237.802780,364.943726 228.464401,378.466888 218.814148,391.698181 
	C215.245789,396.590668 216.696381,400.092224 222.447739,402.019653 
	C225.949432,403.193146 229.470032,404.312469 232.953308,405.538086 
	C236.622330,406.828979 239.751022,405.584229 241.644577,402.674805 
	C254.903427,382.302704 270.665405,363.962738 287.666901,345.856232 
	C297.147430,336.586426 306.627960,327.316620 316.810852,318.017456 
	C333.882812,305.271088 350.954803,292.524719 368.698547,279.693512 
	C376.764679,274.804382 384.584198,269.435791 392.951660,265.132538 
	C407.441864,257.680481 422.271606,250.888580 437.709198,243.972107 
	C439.356201,243.308624 440.977142,242.569244 442.654266,241.993515 
	C457.413910,236.926956 472.183533,231.889511 487.757050,226.996689 
	C502.220856,223.969589 516.625000,220.607178 531.166992,218.019287 
	C543.253296,215.868378 555.460632,214.128906 567.689697,213.124359 
	C580.065674,212.107727 592.534180,212.217682 605.891785,211.993820 
	C623.672729,213.318756 641.555603,213.868408 659.205383,216.190414 
	C676.275391,218.436127 693.166504,222.224731 710.017700,225.881790 
	C720.120422,228.074280 729.995972,231.313675 740.402405,234.672043 
	C742.280823,235.292419 744.204712,235.801865 746.030457,236.550674 
	C760.999390,242.690094 775.950012,248.874084 791.318848,255.607025 
M315.509247,517.989075 
	C330.099274,531.428711 342.006653,546.864685 350.442474,564.889893 
	C356.786102,578.444702 359.896606,592.345276 356.423950,607.387939 
	C352.669739,623.650391 342.842529,635.376709 329.408142,644.224548 
	C308.277252,658.141235 284.347198,663.675903 259.520874,664.806335 
	C241.806885,665.612976 223.957260,665.964966 206.362411,662.138855 
	C203.344528,661.482666 202.015396,660.692627 201.960785,657.528381 
	C201.734161,644.395142 201.208160,631.266602 201.036423,618.133118 
	C200.869217,605.345764 201.000092,592.554504 201.000092,579.251526 
	C202.106720,579.187439 203.738174,578.908386 205.338638,579.031616 
	C213.098663,579.628906 220.889908,580.037109 228.596909,581.062378 
	C245.206497,583.272217 261.713074,586.083923 277.415283,592.286560 
	C283.999298,594.887329 284.761871,599.955933 279.049774,604.252380 
	C276.146698,606.436096 272.662476,607.837830 269.704895,609.960754 
	C265.938904,612.664001 266.293518,615.093872 270.604034,616.695679 
	C281.825256,620.865479 292.452637,619.821838 301.088257,611.171570 
	C308.357056,603.890442 312.182007,595.201660 308.317352,584.461243 
	C303.674774,571.558716 293.593964,564.337830 281.682068,559.971313 
	C256.730652,550.825134 230.967667,545.768127 204.171585,547.976746 
	C201.749329,548.176453 200.027832,547.784241 199.956848,544.628845 
	C199.803955,537.830627 199.584839,531.015808 198.942749,524.250549 
	C197.838715,512.617798 195.852844,501.068329 189.252472,491.149872 
	C187.253357,488.145752 183.373627,484.812836 180.148239,484.586914 
	C175.659027,484.272491 174.793625,489.705475 174.253815,493.234558 
	C171.902557,508.606384 169.530182,524.008423 168.172791,539.487854 
	C167.152496,551.123413 167.731369,550.697937 156.398453,553.110046 
	C133.426315,557.999268 110.735176,563.876709 91.887260,579.098267 
	C86.455574,583.484924 83.339493,589.169983 83.010384,596.220581 
	C82.499817,607.158630 88.680504,615.239868 95.330467,622.648010 
	C113.531975,642.924622 135.175476,658.919312 159.759674,670.520020 
	C166.315323,673.613464 167.533890,677.649963 168.124252,683.766663 
	C169.372467,696.699646 171.989548,707.449707 189.540665,706.032959 
	C195.964462,705.514465 200.037369,702.055969 200.970856,695.681580 
	C201.162643,694.371948 201.386612,693.066772 201.560760,691.754822 
	C201.971710,688.659241 203.174957,687.898987 206.597427,688.552795 
	C217.806732,690.693848 229.078537,693.114380 240.425003,693.804077 
	C263.738159,695.221191 286.921661,693.552673 309.493896,686.908936 
	C336.585236,678.935181 361.257355,667.348389 377.806702,642.789551 
	C393.121857,620.062195 398.467896,595.885742 389.633270,569.520264 
	C382.495148,548.217651 369.887970,530.087952 354.967621,513.565552 
	C339.307068,496.223450 321.310791,481.500702 301.994232,468.446228 
	C273.298035,449.052795 242.224365,434.483215 209.494278,423.235565 
	C179.167984,412.813995 148.088562,406.373688 116.058266,405.179962 
	C106.671822,404.830170 97.109802,405.667694 87.818008,407.150238 
	C74.762619,409.233368 61.716564,411.818726 48.982132,415.332947 
	C38.304932,418.279449 31.935131,426.572357 28.633596,436.947418 
	C27.368654,440.922485 26.700550,445.640686 31.337450,448.007172 
	C39.094543,451.965973 47.416901,453.277496 55.891174,450.442841 
	C60.714771,448.829315 61.200790,444.876953 57.084179,441.808044 
	C55.820129,440.865692 54.102451,440.417236 52.521568,440.039276 
	C49.598976,439.340515 46.624023,438.860779 43.670887,438.289764 
	C43.662148,437.876190 43.653408,437.462585 43.644669,437.049011 
	C47.252647,436.032410 50.800701,434.588104 54.478916,434.072815 
	C70.906265,431.771423 87.305099,430.675629 104.016243,431.726990 
	C124.628082,433.023682 144.918549,435.773956 164.934204,440.537811 
	C197.772476,448.353546 229.058243,460.380554 258.528595,476.865479 
	C278.871399,488.244720 298.182037,501.168243 315.509247,517.989075 
M907.376892,554.966309 
	C899.663757,549.704285 891.334656,550.033081 883.819214,554.322510 
	C875.822388,558.886719 867.489197,563.863831 861.405396,570.568420 
	C848.847351,584.407898 837.679077,599.509155 825.961487,614.109436 
	C824.587952,615.820862 823.355103,617.645142 822.057068,619.417175 
	C821.528564,619.213745 821.000000,619.010315 820.471497,618.806885 
	C821.280396,613.840515 821.108398,608.438110 823.085571,603.991211 
	C828.600708,591.586792 835.199341,579.669006 840.977295,567.374512 
	C843.769226,561.433960 846.193665,555.205750 847.757690,548.854980 
	C848.468384,545.969299 846.684814,542.469360 846.032593,539.248047 
	C842.906982,540.783752 839.203735,541.693604 836.750549,543.957825 
	C822.003113,557.569397 810.949829,573.809204 803.765442,592.585388 
	C797.068848,610.086853 795.364868,627.750427 803.269104,645.336792 
	C804.731079,648.589600 804.603943,651.163635 803.386597,654.264099 
	C797.627075,668.933167 791.477600,683.480957 786.499939,698.416260 
	C781.457092,713.547302 777.894104,729.158875 779.048157,745.334106 
	C780.013428,758.863647 785.992859,769.854553 797.311646,777.489258 
	C804.060364,782.041443 808.935059,779.234131 810.054993,771.135010 
	C811.436279,761.146729 813.067505,751.179382 815.008728,741.284973 
	C819.400696,718.898560 826.600830,697.353210 835.039307,676.195190 
	C836.446777,672.666260 837.708557,670.110046 842.593811,671.481140 
	C845.963440,672.426880 849.894104,672.086060 853.452148,671.534302 
	C879.914673,667.430847 896.075989,649.642273 909.661743,628.637207 
	C916.227600,618.485779 919.020935,606.883240 919.716003,595.130554 
	C920.566895,580.744690 919.384399,566.427429 907.376892,554.966309 
M544.174072,664.807617 
	C561.214111,657.013062 571.064697,644.346252 569.893555,625.015991 
	C569.111206,612.104126 564.301025,600.451904 551.654358,595.330505 
	C542.269409,591.529907 531.920044,589.706055 521.822632,588.164795 
	C506.779541,585.868408 491.570465,584.674744 476.455261,582.822021 
	C473.557556,582.466797 470.767365,581.234619 467.927582,580.406982 
	C467.926666,579.634094 467.925751,578.861206 467.924835,578.088318 
	C473.068176,576.736145 478.148132,574.586548 483.365997,574.171692 
	C504.512573,572.490051 525.717529,571.544128 546.865173,569.873657 
	C553.213074,569.372314 559.681885,568.050964 565.648071,565.877441 
	C569.756653,564.380737 573.880371,560.531067 572.657043,555.583984 
	C571.953613,552.739258 568.446350,549.685242 565.484375,548.464233 
	C554.984558,544.135864 543.834839,542.118896 532.476379,542.074707 
	C523.185364,542.038574 513.870667,542.376343 504.603882,543.057556 
	C489.037537,544.201904 474.120941,547.971619 460.499695,555.856689 
	C454.366333,559.407227 449.080811,564.082275 446.206482,570.727722 
	C440.366028,584.230774 441.443298,598.833374 461.171143,601.813232 
	C467.553162,602.777283 474.001556,603.312622 480.426056,603.982056 
	C493.595459,605.354187 506.894043,605.980469 519.896179,608.285767 
	C528.216125,609.760986 536.405029,613.057251 544.074585,616.740723 
	C549.238831,619.220947 548.968323,622.581482 544.879211,626.671570 
	C544.061218,627.489807 543.164124,628.261963 542.198120,628.894409 
	C522.339294,641.896606 500.133209,643.278320 477.451294,641.483093 
	C473.326721,641.156616 469.198303,638.997864 465.389191,637.060608 
	C460.994812,634.825623 460.556305,629.451843 464.751801,627.057861 
	C467.695618,625.378113 471.688080,624.275513 474.961853,624.727783 
	C479.958099,625.418030 485.030273,627.094238 489.555145,629.374084 
	C503.281982,636.290405 516.888306,637.252869 530.518860,629.624878 
	C532.618652,628.449890 535.277344,625.948120 535.295654,624.037048 
	C535.313843,622.144714 532.672791,619.236877 530.583679,618.487610 
	C522.039185,615.422913 513.384460,612.446777 504.536774,610.498535 
	C492.008820,607.739746 479.251617,606.704407 466.754700,610.992004 
	C456.449921,614.527466 447.982544,622.052734 450.265381,634.299683 
	C451.237305,639.513794 454.114349,645.114197 457.781464,648.960266 
	C476.758423,668.863342 514.362549,677.144592 544.174072,664.807617 
M785.899170,643.589600 
	C782.814941,633.361938 778.540588,630.187195 768.668091,631.056519 
	C765.380432,631.345947 762.121216,631.998840 758.861328,632.557129 
	C747.472717,634.507507 736.089539,636.489258 724.053711,638.571655 
	C724.278564,636.742615 724.289734,635.142761 724.694702,633.649719 
	C725.780518,629.646179 727.428955,625.756165 728.127563,621.696045 
	C729.117615,615.943542 732.525391,614.888000 737.688232,614.896851 
	C747.477051,614.913635 757.283813,614.557983 767.047729,613.860962 
	C770.805969,613.592651 775.842224,614.026184 777.399658,609.499268 
	C778.704956,605.705322 778.937866,601.318176 778.650818,597.264038 
	C778.365173,593.229675 775.750305,590.850220 771.179382,590.951233 
	C763.022583,591.131531 754.859009,591.003113 746.698242,590.999390 
	C739.173584,590.995911 739.204407,591.003418 741.520691,583.912231 
	C742.760071,580.117981 743.483704,576.095276 748.865906,575.972595 
	C755.825684,575.813965 762.806458,575.619507 769.726929,574.927612 
	C778.935730,574.006836 788.137695,572.843262 797.260498,571.298950 
	C803.129761,570.305359 804.815308,566.942810 802.113342,561.606140 
	C799.964966,557.362854 797.128784,553.372864 794.074280,549.706787 
	C790.039185,544.863831 784.669434,542.520630 778.185547,542.983337 
	C763.149780,544.056213 748.054138,544.560181 733.086121,546.224182 
	C722.427307,547.408997 711.898682,549.930847 701.386780,552.202332 
	C695.990784,553.368469 695.023254,556.108337 697.484558,560.972839 
	C701.629272,569.164429 708.113464,573.937256 717.353699,574.309326 
	C717.437744,574.983093 717.614380,575.368225 717.497192,575.612061 
	C715.407715,579.957031 713.029236,584.183960 711.250061,588.650208 
	C709.967529,591.869751 707.741821,593.175720 704.660278,593.930298 
	C697.601685,595.658691 694.921997,598.364624 697.358459,605.049133 
	C700.445129,613.517761 698.418335,620.804016 695.972168,628.525146 
	C694.924927,631.830688 694.340332,635.284790 693.583252,638.679810 
	C688.560974,661.204224 706.766418,683.692566 731.655273,677.739136 
	C748.477661,673.715149 763.470886,666.169373 777.127808,655.965637 
	C780.858704,653.178101 783.019348,648.289001 785.899170,643.589600 
M580.768005,660.433167 
	C583.967834,666.785828 589.406128,670.588257 594.150940,669.790344 
	C600.987732,668.640686 604.171326,665.860657 604.943909,657.540039 
	C606.398743,641.870605 606.975586,626.121033 608.034180,610.412659 
	C608.323486,606.119751 609.028015,601.854858 609.541931,597.577087 
	C610.068909,597.504700 610.595825,597.432251 611.122803,597.359863 
	C613.973511,602.347961 616.769226,607.368530 619.685791,612.317871 
	C627.101257,624.902222 634.164368,637.722839 642.196411,649.902832 
	C646.009644,655.685181 650.649658,661.736694 658.916321,661.994446 
	C670.362793,662.351196 678.237427,656.965027 681.962036,645.386108 
	C689.362427,622.380310 688.975281,599.072266 683.359009,575.808655 
	C678.810974,556.970032 670.266968,540.372498 654.601135,528.150452 
	C651.620361,525.825012 647.804688,523.079468 644.848389,525.779297 
	C642.706421,527.735352 642.913391,532.303772 642.188782,535.731750 
	C642.069153,536.297546 642.588928,536.979187 642.740723,537.624329 
	C648.357971,561.498108 654.104309,585.343201 659.445312,609.278687 
	C660.370850,613.426392 659.576416,617.957886 659.576416,622.312073 
	C657.106750,621.249023 655.677429,619.932678 654.663269,618.350281 
	C646.055359,604.919861 637.812744,591.244385 628.858398,578.051025 
	C623.567932,570.256165 617.573914,562.844360 611.181946,555.919678 
	C605.450256,549.710327 597.972961,550.567444 593.740845,557.816711 
	C590.515015,563.342285 587.556824,569.415771 586.290710,575.615417 
	C583.283020,590.343506 581.230103,605.273193 579.019348,620.155334 
	C577.051025,633.405212 577.338806,646.630920 580.768005,660.433167 
M1041.979492,544.655029 
	C1040.314697,534.196045 1038.639038,523.738770 1036.990601,513.277222 
	C1036.329468,509.080994 1034.319214,506.676971 1029.667847,506.954468 
	C1025.849731,507.182220 1022.007141,506.985748 1018.175476,507.003448 
	C1011.595215,507.033875 1010.372253,508.990265 1011.392761,515.680908 
	C1014.087646,533.348328 1016.689636,551.036072 1018.893372,568.769775 
	C1020.037292,577.975769 1019.620972,578.033264 1010.205139,578.032410 
	C993.378845,578.030884 976.552551,577.995972 959.726318,578.026733 
	C951.589905,578.041626 950.006287,579.640747 950.000305,587.513489 
	C949.998413,590.012451 949.996887,592.511414 950.000671,595.010376 
	C950.012451,602.794189 951.201233,603.995361 958.963684,603.998047 
	C977.622620,604.004517 996.282166,603.937195 1014.939514,604.109253 
	C1016.620789,604.124695 1019.730835,605.634277 1019.745544,606.491699 
	C1019.968079,619.471375 1019.961182,632.462585 1019.628174,645.441345 
	C1019.428711,653.213196 1018.519409,660.964844 1018.030640,668.731995 
	C1017.810547,672.228699 1019.634338,673.989807 1023.140015,673.989929 
	C1027.804688,673.990112 1032.469727,674.024841 1037.133911,673.974731 
	C1040.686401,673.936523 1042.642822,672.135437 1043.012817,668.537354 
	C1043.622070,662.610229 1044.653076,656.707092 1044.917603,650.767700 
	C1045.479004,638.154419 1045.714478,625.525452 1045.983276,612.900757 
	C1046.197632,602.831177 1044.747192,604.047668 1054.654541,604.016479 
	C1072.980225,603.958801 1091.306030,604.020813 1109.631836,603.986145 
	C1115.028931,603.975952 1116.912354,602.131104 1116.986816,596.915955 
	C1117.046265,592.751892 1116.940796,588.585327 1117.011475,584.421631 
	C1117.065063,581.272034 1115.687012,579.328796 1112.572388,578.781311 
	C1110.626709,578.439392 1108.651611,578.057922 1106.688721,578.051941 
	C1087.863525,577.994751 1069.037720,577.967590 1050.212769,578.055420 
	C1047.002563,578.070435 1045.063721,577.810120 1044.803589,573.698730 
	C1044.208984,564.296997 1042.972290,554.935913 1041.979492,544.655029 
M482.496826,498.002197 
	C484.851196,495.647644 487.362396,493.428223 489.530396,490.913055 
	C495.894470,483.529877 500.351898,475.050140 499.674347,465.168671 
	C498.815582,452.644135 490.579956,445.860260 479.238556,442.232544 
	C477.846924,441.787384 476.104828,441.578552 475.193634,440.622833 
	C465.067108,430.001923 452.747681,427.449707 438.728546,429.925720 
	C414.615540,434.184418 395.313171,446.118774 381.622131,466.330017 
	C374.453796,476.912170 372.037811,489.246399 378.455292,500.790985 
	C382.381073,507.853241 384.277130,514.774353 385.282623,522.502625 
	C385.893433,527.197510 388.867462,531.473755 393.685333,532.767517 
	C398.736816,534.124023 401.024475,529.911621 402.902466,526.128296 
	C404.139008,523.637207 405.753265,523.769775 408.175659,524.052673 
	C415.386108,524.894775 422.847473,526.609131 429.857086,525.578125 
	C450.165161,522.590820 467.284088,512.677063 482.496826,498.002197 
M409.207703,564.883728 
	C407.809113,578.547546 405.932281,592.184326 405.155243,605.883362 
	C404.467865,618.001221 404.644562,630.203125 405.137573,642.339600 
	C405.431030,649.563599 406.543732,656.862000 408.261780,663.888916 
	C409.849182,670.381531 416.722504,674.172180 423.907715,673.781860 
	C431.355438,673.377258 435.252441,670.169006 436.715942,663.077393 
	C437.014648,661.629944 437.032990,660.096436 436.981995,658.609375 
	C436.350861,640.196472 435.891144,621.774109 434.951050,603.376465 
	C434.326172,591.148132 433.307861,578.919128 431.863953,566.761841 
	C431.112396,560.433960 430.208649,553.781372 424.684387,549.230042 
	C419.894958,545.284180 415.099274,546.349182 412.905090,552.162109 
	C411.451416,556.013184 410.602692,560.092590 409.207703,564.883728 
z"/>
<path fill="#0F1C4F" opacity="1.000000" stroke="none" 
	d="
M315.262695,517.734619 
	C298.182037,501.168243 278.871399,488.244720 258.528595,476.865479 
	C229.058243,460.380554 197.772476,448.353546 164.934204,440.537811 
	C144.918549,435.773956 124.628082,433.023682 104.016243,431.726990 
	C87.305099,430.675629 70.906265,431.771423 54.478916,434.072815 
	C50.800701,434.588104 47.252647,436.032410 43.644669,437.049011 
	C43.653408,437.462585 43.662148,437.876190 43.670887,438.289764 
	C46.624023,438.860779 49.598976,439.340515 52.521568,440.039276 
	C54.102451,440.417236 55.820129,440.865692 57.084179,441.808044 
	C61.200790,444.876953 60.714771,448.829315 55.891174,450.442841 
	C47.416901,453.277496 39.094543,451.965973 31.337450,448.007172 
	C26.700550,445.640686 27.368654,440.922485 28.633596,436.947418 
	C31.935131,426.572357 38.304932,418.279449 48.982132,415.332947 
	C61.716564,411.818726 74.762619,409.233368 87.818008,407.150238 
	C97.109802,405.667694 106.671822,404.830170 116.058266,405.179962 
	C148.088562,406.373688 179.167984,412.813995 209.494278,423.235565 
	C242.224365,434.483215 273.298035,449.052795 301.994232,468.446228 
	C321.310791,481.500702 339.307068,496.223450 354.967621,513.565552 
	C369.887970,530.087952 382.495148,548.217651 389.633270,569.520264 
	C398.467896,595.885742 393.121857,620.062195 377.806702,642.789551 
	C361.257355,667.348389 336.585236,678.935181 309.493896,686.908936 
	C286.921661,693.552673 263.738159,695.221191 240.425003,693.804077 
	C229.078537,693.114380 217.806732,690.693848 206.597427,688.552795 
	C203.174957,687.898987 201.971710,688.659241 201.560760,691.754822 
	C201.386612,693.066772 201.162643,694.371948 200.970856,695.681580 
	C200.037369,702.055969 195.964462,705.514465 189.540665,706.032959 
	C171.989548,707.449707 169.372467,696.699646 168.124252,683.766663 
	C167.533890,677.649963 166.315323,673.613464 159.759674,670.520020 
	C135.175476,658.919312 113.531975,642.924622 95.330467,622.648010 
	C88.680504,615.239868 82.499817,607.158630 83.010384,596.220581 
	C83.339493,589.169983 86.455574,583.484924 91.887260,579.098267 
	C110.735176,563.876709 133.426315,557.999268 156.398453,553.110046 
	C167.731369,550.697937 167.152496,551.123413 168.172791,539.487854 
	C169.530182,524.008423 171.902557,508.606384 174.253815,493.234558 
	C174.793625,489.705475 175.659027,484.272491 180.148239,484.586914 
	C183.373627,484.812836 187.253357,488.145752 189.252472,491.149872 
	C195.852844,501.068329 197.838715,512.617798 198.942749,524.250549 
	C199.584839,531.015808 199.803955,537.830627 199.956848,544.628845 
	C200.027832,547.784241 201.749329,548.176453 204.171585,547.976746 
	C230.967667,545.768127 256.730652,550.825134 281.682068,559.971313 
	C293.593964,564.337830 303.674774,571.558716 308.317352,584.461243 
	C312.182007,595.201660 308.357056,603.890442 301.088257,611.171570 
	C292.452637,619.821838 281.825256,620.865479 270.604034,616.695679 
	C266.293518,615.093872 265.938904,612.664001 269.704895,609.960754 
	C272.662476,607.837830 276.146698,606.436096 279.049774,604.252380 
	C284.761871,599.955933 283.999298,594.887329 277.415283,592.286560 
	C261.713074,586.083923 245.206497,583.272217 228.596909,581.062378 
	C220.889908,580.037109 213.098663,579.628906 205.338638,579.031616 
	C203.738174,578.908386 202.106720,579.187439 201.000092,579.251526 
	C201.000092,592.554504 200.869217,605.345764 201.036423,618.133118 
	C201.208160,631.266602 201.734161,644.395142 201.960785,657.528381 
	C202.015396,660.692627 203.344528,661.482666 206.362411,662.138855 
	C223.957260,665.964966 241.806885,665.612976 259.520874,664.806335 
	C284.347198,663.675903 308.277252,658.141235 329.408142,644.224548 
	C342.842529,635.376709 352.669739,623.650391 356.423950,607.387939 
	C359.896606,592.345276 356.786102,578.444702 350.442474,564.889893 
	C342.006653,546.864685 330.099274,531.428711 315.262695,517.734619 
M167.000000,594.506226 
	C166.994064,590.679016 167.224731,586.826660 166.823715,583.041321 
	C166.717163,582.035522 164.634232,580.427429 163.521881,580.478333 
	C158.252930,580.719116 152.936188,581.072388 147.764175,582.056702 
	C132.845169,584.896057 117.784264,587.316284 103.168343,591.321655 
	C90.779182,594.716675 89.981293,600.375244 99.078766,609.579834 
	C114.949898,625.637878 133.928406,637.079834 154.220123,646.515137 
	C158.060547,648.300903 162.208511,649.425232 167.000000,651.135010 
	C167.000000,632.025513 167.000000,613.765015 167.000000,594.506226 
z"/>
<path fill="#0F1C4F" opacity="1.000000" stroke="none" 
	d="
M907.652588,555.208130 
	C919.384399,566.427429 920.566895,580.744690 919.716003,595.130554 
	C919.020935,606.883240 916.227600,618.485779 909.661743,628.637207 
	C896.075989,649.642273 879.914673,667.430847 853.452148,671.534302 
	C849.894104,672.086060 845.963440,672.426880 842.593811,671.481140 
	C837.708557,670.110046 836.446777,672.666260 835.039307,676.195190 
	C826.600830,697.353210 819.400696,718.898560 815.008728,741.284973 
	C813.067505,751.179382 811.436279,761.146729 810.054993,771.135010 
	C808.935059,779.234131 804.060364,782.041443 797.311646,777.489258 
	C785.992859,769.854553 780.013428,758.863647 779.048157,745.334106 
	C777.894104,729.158875 781.457092,713.547302 786.499939,698.416260 
	C791.477600,683.480957 797.627075,668.933167 803.386597,654.264099 
	C804.603943,651.163635 804.731079,648.589600 803.269104,645.336792 
	C795.364868,627.750427 797.068848,610.086853 803.765442,592.585388 
	C810.949829,573.809204 822.003113,557.569397 836.750549,543.957825 
	C839.203735,541.693604 842.906982,540.783752 846.032593,539.248047 
	C846.684814,542.469360 848.468384,545.969299 847.757690,548.854980 
	C846.193665,555.205750 843.769226,561.433960 840.977295,567.374512 
	C835.199341,579.669006 828.600708,591.586792 823.085571,603.991211 
	C821.108398,608.438110 821.280396,613.840515 820.471497,618.806885 
	C821.000000,619.010315 821.528564,619.213745 822.057068,619.417175 
	C823.355103,617.645142 824.587952,615.820862 825.961487,614.109436 
	C837.679077,599.509155 848.847351,584.407898 861.405396,570.568420 
	C867.489197,563.863831 875.822388,558.886719 883.819214,554.322510 
	C891.334656,550.033081 899.663757,549.704285 907.652588,555.208130 
M896.681274,578.170471 
	C895.079102,579.348511 893.163574,580.264954 891.926086,581.747437 
	C884.490540,590.654846 876.810608,599.401123 869.993408,608.769531 
	C863.429993,617.789124 857.812439,627.496948 851.196838,637.810364 
	C853.832153,637.810364 855.017883,638.040283 856.080444,637.775574 
	C870.001953,634.307739 882.093872,627.846741 891.121460,616.331970 
	C898.501709,606.918396 903.181091,596.489014 902.904907,584.341003 
	C902.831421,581.106750 902.811646,576.891113 896.681274,578.170471 
z"/>
<path fill="#0F1C4F" opacity="1.000000" stroke="none" 
	d="
M543.803223,664.908691 
	C514.362549,677.144592 476.758423,668.863342 457.781464,648.960266 
	C454.114349,645.114197 451.237305,639.513794 450.265381,634.299683 
	C447.982544,622.052734 456.449921,614.527466 466.754700,610.992004 
	C479.251617,606.704407 492.008820,607.739746 504.536774,610.498535 
	C513.384460,612.446777 522.039185,615.422913 530.583679,618.487610 
	C532.672791,619.236877 535.313843,622.144714 535.295654,624.037048 
	C535.277344,625.948120 532.618652,628.449890 530.518860,629.624878 
	C516.888306,637.252869 503.281982,636.290405 489.555145,629.374084 
	C485.030273,627.094238 479.958099,625.418030 474.961853,624.727783 
	C471.688080,624.275513 467.695618,625.378113 464.751801,627.057861 
	C460.556305,629.451843 460.994812,634.825623 465.389191,637.060608 
	C469.198303,638.997864 473.326721,641.156616 477.451294,641.483093 
	C500.133209,643.278320 522.339294,641.896606 542.198120,628.894409 
	C543.164124,628.261963 544.061218,627.489807 544.879211,626.671570 
	C548.968323,622.581482 549.238831,619.220947 544.074585,616.740723 
	C536.405029,613.057251 528.216125,609.760986 519.896179,608.285767 
	C506.894043,605.980469 493.595459,605.354187 480.426056,603.982056 
	C474.001556,603.312622 467.553162,602.777283 461.171143,601.813232 
	C441.443298,598.833374 440.366028,584.230774 446.206482,570.727722 
	C449.080811,564.082275 454.366333,559.407227 460.499695,555.856689 
	C474.120941,547.971619 489.037537,544.201904 504.603882,543.057556 
	C513.870667,542.376343 523.185364,542.038574 532.476379,542.074707 
	C543.834839,542.118896 554.984558,544.135864 565.484375,548.464233 
	C568.446350,549.685242 571.953613,552.739258 572.657043,555.583984 
	C573.880371,560.531067 569.756653,564.380737 565.648071,565.877441 
	C559.681885,568.050964 553.213074,569.372314 546.865173,569.873657 
	C525.717529,571.544128 504.512573,572.490051 483.365997,574.171692 
	C478.148132,574.586548 473.068176,576.736145 467.924835,578.088318 
	C467.925751,578.861206 467.926666,579.634094 467.927582,580.406982 
	C470.767365,581.234619 473.557556,582.466797 476.455261,582.822021 
	C491.570465,584.674744 506.779541,585.868408 521.822632,588.164795 
	C531.920044,589.706055 542.269409,591.529907 551.654358,595.330505 
	C564.301025,600.451904 569.111206,612.104126 569.893555,625.015991 
	C571.064697,644.346252 561.214111,657.013062 543.803223,664.908691 
z"/>
<path fill="#0F1C4F" opacity="1.000000" stroke="none" 
	d="
M785.899902,643.976990 
	C783.019348,648.289001 780.858704,653.178101 777.127808,655.965637 
	C763.470886,666.169373 748.477661,673.715149 731.655273,677.739136 
	C706.766418,683.692566 688.560974,661.204224 693.583252,638.679810 
	C694.340332,635.284790 694.924927,631.830688 695.972168,628.525146 
	C698.418335,620.804016 700.445129,613.517761 697.358459,605.049133 
	C694.921997,598.364624 697.601685,595.658691 704.660278,593.930298 
	C707.741821,593.175720 709.967529,591.869751 711.250061,588.650208 
	C713.029236,584.183960 715.407715,579.957031 717.497192,575.612061 
	C717.614380,575.368225 717.437744,574.983093 717.353699,574.309326 
	C708.113464,573.937256 701.629272,569.164429 697.484558,560.972839 
	C695.023254,556.108337 695.990784,553.368469 701.386780,552.202332 
	C711.898682,549.930847 722.427307,547.408997 733.086121,546.224182 
	C748.054138,544.560181 763.149780,544.056213 778.185547,542.983337 
	C784.669434,542.520630 790.039185,544.863831 794.074280,549.706787 
	C797.128784,553.372864 799.964966,557.362854 802.113342,561.606140 
	C804.815308,566.942810 803.129761,570.305359 797.260498,571.298950 
	C788.137695,572.843262 778.935730,574.006836 769.726929,574.927612 
	C762.806458,575.619507 755.825684,575.813965 748.865906,575.972595 
	C743.483704,576.095276 742.760071,580.117981 741.520691,583.912231 
	C739.204407,591.003418 739.173584,590.995911 746.698242,590.999390 
	C754.859009,591.003113 763.022583,591.131531 771.179382,590.951233 
	C775.750305,590.850220 778.365173,593.229675 778.650818,597.264038 
	C778.937866,601.318176 778.704956,605.705322 777.399658,609.499268 
	C775.842224,614.026184 770.805969,613.592651 767.047729,613.860962 
	C757.283813,614.557983 747.477051,614.913635 737.688232,614.896851 
	C732.525391,614.888000 729.117615,615.943542 728.127563,621.696045 
	C727.428955,625.756165 725.780518,629.646179 724.694702,633.649719 
	C724.289734,635.142761 724.278564,636.742615 724.053711,638.571655 
	C736.089539,636.489258 747.472717,634.507507 758.861328,632.557129 
	C762.121216,631.998840 765.380432,631.345947 768.668091,631.056519 
	C778.540588,630.187195 782.814941,633.361938 785.899902,643.976990 
z"/>
<path fill="#0F1C4F" opacity="1.000000" stroke="none" 
	d="
M580.583618,660.082825 
	C577.338806,646.630920 577.051025,633.405212 579.019348,620.155334 
	C581.230103,605.273193 583.283020,590.343506 586.290710,575.615417 
	C587.556824,569.415771 590.515015,563.342285 593.740845,557.816711 
	C597.972961,550.567444 605.450256,549.710327 611.181946,555.919678 
	C617.573914,562.844360 623.567932,570.256165 628.858398,578.051025 
	C637.812744,591.244385 646.055359,604.919861 654.663269,618.350281 
	C655.677429,619.932678 657.106750,621.249023 659.576416,622.312073 
	C659.576416,617.957886 660.370850,613.426392 659.445312,609.278687 
	C654.104309,585.343201 648.357971,561.498108 642.740723,537.624329 
	C642.588928,536.979187 642.069153,536.297546 642.188782,535.731750 
	C642.913391,532.303772 642.706421,527.735352 644.848389,525.779297 
	C647.804688,523.079468 651.620361,525.825012 654.601135,528.150452 
	C670.266968,540.372498 678.810974,556.970032 683.359009,575.808655 
	C688.975281,599.072266 689.362427,622.380310 681.962036,645.386108 
	C678.237427,656.965027 670.362793,662.351196 658.916321,661.994446 
	C650.649658,661.736694 646.009644,655.685181 642.196411,649.902832 
	C634.164368,637.722839 627.101257,624.902222 619.685791,612.317871 
	C616.769226,607.368530 613.973511,602.347961 611.122803,597.359863 
	C610.595825,597.432251 610.068909,597.504700 609.541931,597.577087 
	C609.028015,601.854858 608.323486,606.119751 608.034180,610.412659 
	C606.975586,626.121033 606.398743,641.870605 604.943909,657.540039 
	C604.171326,665.860657 600.987732,668.640686 594.150940,669.790344 
	C589.406128,670.588257 583.967834,666.785828 580.583618,660.082825 
z"/>
<path fill="#0F1C4F" opacity="1.000000" stroke="none" 
	d="
M1041.988037,545.106689 
	C1042.972290,554.935913 1044.208984,564.296997 1044.803589,573.698730 
	C1045.063721,577.810120 1047.002563,578.070435 1050.212769,578.055420 
	C1069.037720,577.967590 1087.863525,577.994751 1106.688721,578.051941 
	C1108.651611,578.057922 1110.626709,578.439392 1112.572388,578.781311 
	C1115.687012,579.328796 1117.065063,581.272034 1117.011475,584.421631 
	C1116.940796,588.585327 1117.046265,592.751892 1116.986816,596.915955 
	C1116.912354,602.131104 1115.028931,603.975952 1109.631836,603.986145 
	C1091.306030,604.020813 1072.980225,603.958801 1054.654541,604.016479 
	C1044.747192,604.047668 1046.197632,602.831177 1045.983276,612.900757 
	C1045.714478,625.525452 1045.479004,638.154419 1044.917603,650.767700 
	C1044.653076,656.707092 1043.622070,662.610229 1043.012817,668.537354 
	C1042.642822,672.135437 1040.686401,673.936523 1037.133911,673.974731 
	C1032.469727,674.024841 1027.804688,673.990112 1023.140015,673.989929 
	C1019.634338,673.989807 1017.810547,672.228699 1018.030640,668.731995 
	C1018.519409,660.964844 1019.428711,653.213196 1019.628174,645.441345 
	C1019.961182,632.462585 1019.968079,619.471375 1019.745544,606.491699 
	C1019.730835,605.634277 1016.620789,604.124695 1014.939514,604.109253 
	C996.282166,603.937195 977.622620,604.004517 958.963684,603.998047 
	C951.201233,603.995361 950.012451,602.794189 950.000671,595.010376 
	C949.996887,592.511414 949.998413,590.012451 950.000305,587.513489 
	C950.006287,579.640747 951.589905,578.041626 959.726318,578.026733 
	C976.552551,577.995972 993.378845,578.030884 1010.205139,578.032410 
	C1019.620972,578.033264 1020.037292,577.975769 1018.893372,568.769775 
	C1016.689636,551.036072 1014.087646,533.348328 1011.392761,515.680908 
	C1010.372253,508.990265 1011.595215,507.033875 1018.175476,507.003448 
	C1022.007141,506.985748 1025.849731,507.182220 1029.667847,506.954468 
	C1034.319214,506.676971 1036.329468,509.080994 1036.990601,513.277222 
	C1038.639038,523.738770 1040.314697,534.196045 1041.988037,545.106689 
z"/>
<path fill="#0F1C4F" opacity="1.000000" stroke="none" 
	d="
M482.245911,498.253235 
	C467.284088,512.677063 450.165161,522.590820 429.857086,525.578125 
	C422.847473,526.609131 415.386108,524.894775 408.175659,524.052673 
	C405.753265,523.769775 404.139008,523.637207 402.902466,526.128296 
	C401.024475,529.911621 398.736816,534.124023 393.685333,532.767517 
	C388.867462,531.473755 385.893433,527.197510 385.282623,522.502625 
	C384.277130,514.774353 382.381073,507.853241 378.455292,500.790985 
	C372.037811,489.246399 374.453796,476.912170 381.622131,466.330017 
	C395.313171,446.118774 414.615540,434.184418 438.728546,429.925720 
	C452.747681,427.449707 465.067108,430.001923 475.193634,440.622833 
	C476.104828,441.578552 477.846924,441.787384 479.238556,442.232544 
	C490.579956,445.860260 498.815582,452.644135 499.674347,465.168671 
	C500.351898,475.050140 495.894470,483.529877 489.530396,490.913055 
	C487.362396,493.428223 484.851196,495.647644 482.245911,498.253235 
M479.833893,476.069153 
	C480.150909,475.128235 480.458466,474.183990 480.786407,473.246918 
	C483.472748,465.570831 478.951416,458.685547 470.899658,459.163116 
	C466.574768,459.419617 461.973541,460.650818 458.148560,462.673920 
	C445.199066,469.523224 435.044159,479.905365 425.166412,490.477936 
	C422.192627,493.660889 419.875763,497.457611 417.257935,500.973175 
	C417.397858,501.438232 417.537781,501.903320 417.677704,502.368408 
	C425.190765,501.896118 432.870667,502.252869 440.182617,500.781281 
	C456.054565,497.586914 469.943451,490.541809 479.833893,476.069153 
M398.854187,485.318390 
	C407.144043,475.947693 415.433929,466.576965 423.662720,457.275269 
	C413.551208,457.219849 395.045013,473.020050 393.645050,481.837341 
	C393.213562,484.554932 393.578003,487.398895 393.578003,490.184998 
	C394.042328,490.279510 394.506653,490.374023 394.970978,490.468536 
	C396.136444,488.950867 397.301880,487.433197 398.854187,485.318390 
z"/>
<path fill="#0F1C4F" opacity="1.000000" stroke="none" 
	d="
M409.345459,564.476807 
	C410.602692,560.092590 411.451416,556.013184 412.905090,552.162109 
	C415.099274,546.349182 419.894958,545.284180 424.684387,549.230042 
	C430.208649,553.781372 431.112396,560.433960 431.863953,566.761841 
	C433.307861,578.919128 434.326172,591.148132 434.951050,603.376465 
	C435.891144,621.774109 436.350861,640.196472 436.981995,658.609375 
	C437.032990,660.096436 437.014648,661.629944 436.715942,663.077393 
	C435.252441,670.169006 431.355438,673.377258 423.907715,673.781860 
	C416.722504,674.172180 409.849182,670.381531 408.261780,663.888916 
	C406.543732,656.862000 405.431030,649.563599 405.137573,642.339600 
	C404.644562,630.203125 404.467865,618.001221 405.155243,605.883362 
	C405.932281,592.184326 407.809113,578.547546 409.345459,564.476807 
z"/>
<path fill="#08519D" opacity="1.000000" stroke="none" 
	d="
M739.973633,234.082550 
	C729.995972,231.313675 720.120422,228.074280 710.017700,225.881790 
	C693.166504,222.224731 676.275391,218.436127 659.205383,216.190414 
	C641.555603,213.868408 623.672729,213.318756 605.516235,211.519073 
	C605.413696,203.087296 605.686707,195.130249 605.959717,187.173218 
	C615.995911,187.747467 626.046204,188.145203 636.064331,188.945663 
	C646.062744,189.744507 656.100220,190.499680 665.992554,192.076828 
	C680.896423,194.452988 695.772095,197.154572 710.500183,200.434097 
	C720.545959,202.670975 730.319458,206.130051 740.676514,209.511261 
	C740.750061,218.014084 740.361816,226.048309 739.973633,234.082550 
z"/>
<path fill="#0677B5" opacity="1.000000" stroke="none" 
	d="
M605.496338,187.126083 
	C605.686707,195.130249 605.413696,203.087296 605.051392,211.439240 
	C592.534180,212.217682 580.065674,212.107727 567.689697,213.124359 
	C555.460632,214.128906 543.253296,215.868378 531.166992,218.019287 
	C516.625000,220.607178 502.220856,223.969589 487.368256,226.463806 
	C487.301880,220.522491 487.773834,215.117065 487.881378,209.704376 
	C487.932434,207.133408 487.288391,204.548645 486.959198,201.970123 
	C496.903778,199.639267 506.789368,197.004303 516.809326,195.062149 
	C527.057312,193.075775 537.413635,191.591644 547.766785,190.222748 
	C555.415344,189.211456 563.121704,188.468216 570.826111,188.088531 
	C582.217346,187.527145 593.629700,187.394287 605.496338,187.126083 
z"/>
<path fill="#0E1F5C" opacity="1.000000" stroke="none" 
	d="
M966.035156,366.908630 
	C976.259094,381.774536 987.508972,396.052765 996.446472,411.655518 
	C1007.553894,431.046326 1016.887695,451.464844 1026.694824,471.582153 
	C1030.055298,478.475342 1027.425659,481.348145 1019.854797,482.123047 
	C1008.995361,483.234528 1002.496094,480.392700 998.115356,469.050140 
	C989.127380,445.778473 975.794983,424.588898 962.408691,403.136780 
	C963.049561,401.589600 963.845581,400.594513 963.919800,399.548218 
	C964.691650,388.673065 965.347290,377.789703 966.035156,366.908630 
z"/>
<path fill="#0D226A" opacity="1.000000" stroke="none" 
	d="
M965.876343,366.614502 
	C965.347290,377.789703 964.691650,388.673065 963.919800,399.548218 
	C963.845581,400.594513 963.049561,401.589600 962.255127,402.829102 
	C943.802124,377.324371 923.813232,353.190063 900.956665,331.503204 
	C898.808167,329.464630 896.514221,327.579346 894.399536,325.067322 
	C895.004822,322.984741 895.846802,321.477325 895.933777,319.927521 
	C896.401306,311.600708 896.681091,303.263367 897.025635,294.929657 
	C917.035828,311.360687 935.319824,329.534485 951.915649,349.402649 
	C956.580994,354.987854 961.120300,360.678284 965.876343,366.614502 
z"/>
<path fill="#89E4F0" opacity="1.000000" stroke="none" 
	d="
M287.034851,346.099884 
	C270.665405,363.962738 254.903427,382.302704 241.644577,402.674805 
	C239.751022,405.584229 236.622330,406.828979 232.953308,405.538086 
	C229.470032,404.312469 225.949432,403.193146 222.447739,402.019653 
	C216.696381,400.092224 215.245789,396.590668 218.814148,391.698181 
	C228.464401,378.466888 237.802780,364.943726 248.333588,352.436157 
	C260.137604,338.416321 273.109406,325.379333 285.599274,311.939026 
	C286.009155,311.497955 286.704834,311.322479 287.617767,311.438538 
	C287.657104,323.269226 287.345978,334.684570 287.034851,346.099884 
z"/>
<path fill="#39ADD2" opacity="1.000000" stroke="none" 
	d="
M365.967072,251.942566 
	C388.247253,238.338303 411.657959,227.072906 436.789429,218.317200 
	C437.278870,227.013519 437.118896,235.416656 436.958923,243.819778 
	C422.271606,250.888580 407.441864,257.680481 392.951660,265.132538 
	C384.584198,269.435791 376.764679,274.804382 368.269257,279.357117 
	C367.593506,277.241302 367.093658,275.454163 367.147217,273.683777 
	C367.321198,267.928741 367.848999,262.180969 367.892761,256.427734 
	C367.904083,254.937637 366.643463,253.437881 365.967072,251.942566 
z"/>
<path fill="#0C2678" opacity="1.000000" stroke="none" 
	d="
M896.848022,294.647675 
	C896.681091,303.263367 896.401306,311.600708 895.933777,319.927521 
	C895.846802,321.477325 895.004822,322.984741 894.226929,324.777527 
	C876.721191,311.592773 859.499634,298.142212 842.286011,284.005737 
	C842.874329,274.510651 843.454773,265.701477 844.035278,256.892334 
	C850.585815,260.981842 857.395386,264.714386 863.630188,269.239014 
	C874.825684,277.363678 885.675964,285.964081 896.848022,294.647675 
z"/>
<path fill="#5FC8E0" opacity="1.000000" stroke="none" 
	d="
M365.638489,252.081085 
	C366.643463,253.437881 367.904083,254.937637 367.892761,256.427734 
	C367.848999,262.180969 367.321198,267.928741 367.147217,273.683777 
	C367.093658,275.454163 367.593506,277.241302 367.933350,279.399536 
	C350.954803,292.524719 333.882812,305.271088 316.204254,317.757355 
	C316.006226,309.263611 316.553650,301.032745 316.720398,292.794220 
	C316.759399,290.866119 315.508728,288.911926 314.851410,286.969757 
	C330.008087,276.382111 345.157928,265.784607 360.331726,255.221497 
	C361.918640,254.116776 363.647125,253.215363 365.638489,252.081085 
z"/>
<path fill="#0B3081" opacity="1.000000" stroke="none" 
	d="
M843.830505,256.627869 
	C843.454773,265.701477 842.874329,274.510651 842.122681,283.709839 
	C841.785645,284.051880 841.619812,284.003906 841.066528,283.710449 
	C840.463501,283.257996 840.213196,283.110107 839.928040,283.021271 
	C823.724976,273.883179 807.521912,264.745117 791.476196,255.216400 
	C792.421875,252.439072 793.750732,250.083679 793.891296,247.659424 
	C794.233643,241.752258 794.025146,235.813187 794.038452,229.886963 
	C800.908508,233.030365 807.978882,235.805206 814.601562,239.403839 
	C824.442444,244.751205 833.966736,250.681320 843.830505,256.627869 
z"/>
<path fill="#0A3C8B" opacity="1.000000" stroke="none" 
	d="
M793.828247,229.613754 
	C794.025146,235.813187 794.233643,241.752258 793.891296,247.659424 
	C793.750732,250.083679 792.421875,252.439072 791.269897,254.935150 
	C775.950012,248.874084 760.999390,242.690094 746.030457,236.550674 
	C744.204712,235.801865 742.280823,235.292419 740.187988,234.377289 
	C740.361816,226.048309 740.750061,218.014084 741.052124,209.584457 
	C754.903870,214.255157 768.864502,219.259995 782.764404,224.428253 
	C786.477783,225.808975 790.005249,227.689468 793.828247,229.613754 
z"/>
<path fill="#1D9BC8" opacity="1.000000" stroke="none" 
	d="
M437.334045,243.895935 
	C437.118896,235.416656 437.278870,227.013519 437.171967,218.288300 
	C443.471649,215.321579 449.932617,212.363144 456.630768,210.109619 
	C465.540833,207.111938 474.630615,204.646133 483.660248,202.010223 
	C484.420746,201.788208 485.310089,202.007431 486.549377,201.995895 
	C487.288391,204.548645 487.932434,207.133408 487.881378,209.704376 
	C487.773834,215.117065 487.301880,220.522491 486.964844,226.387177 
	C472.183533,231.889511 457.413910,236.926956 442.654266,241.993515 
	C440.977142,242.569244 439.356201,243.308624 437.334045,243.895935 
z"/>
<path fill="#6ED2E6" opacity="1.000000" stroke="none" 
	d="
M314.548431,287.107788 
	C315.508728,288.911926 316.759399,290.866119 316.720398,292.794220 
	C316.553650,301.032745 316.006226,309.263611 315.853088,317.772034 
	C306.627960,327.316620 297.147430,336.586426 287.350861,345.978058 
	C287.345978,334.684570 287.657104,323.269226 287.964844,311.379974 
	C295.753784,303.912506 303.547394,296.920319 311.336945,289.923676 
	C312.317261,289.043091 313.276459,288.139008 314.548431,287.107788 
z"/>
<path fill="#0C2678" opacity="1.000000" stroke="none" 
	d="
M840.042969,283.221558 
	C840.213196,283.110107 840.463501,283.257996 840.819763,283.631897 
	C840.622864,283.822540 840.355286,283.696838 840.042969,283.221558 
z"/>
<path fill="#000000" opacity="1.000000" stroke="none" 
	d="
M167.000000,595.005371 
	C167.000000,613.765015 167.000000,632.025513 167.000000,651.135010 
	C162.208511,649.425232 158.060547,648.300903 154.220123,646.515137 
	C133.928406,637.079834 114.949898,625.637878 99.078766,609.579834 
	C89.981293,600.375244 90.779182,594.716675 103.168343,591.321655 
	C117.784264,587.316284 132.845169,584.896057 147.764175,582.056702 
	C152.936188,581.072388 158.252930,580.719116 163.521881,580.478333 
	C164.634232,580.427429 166.717163,582.035522 166.823715,583.041321 
	C167.224731,586.826660 166.994064,590.679016 167.000000,595.005371 
z"/>
<path fill="#000000" opacity="1.000000" stroke="none" 
	d="
M897.008728,578.032227 
	C902.811646,576.891113 902.831421,581.106750 902.904907,584.341003 
	C903.181091,596.489014 898.501709,606.918396 891.121460,616.331970 
	C882.093872,627.846741 870.001953,634.307739 856.080444,637.775574 
	C855.017883,638.040283 853.832153,637.810364 851.196838,637.810364 
	C857.812439,627.496948 863.429993,617.789124 869.993408,608.769531 
	C876.810608,599.401123 884.490540,590.654846 891.926086,581.747437 
	C893.163574,580.264954 895.079102,579.348511 897.008728,578.032227 
z"/>
<path fill="#000000" opacity="1.000000" stroke="none" 
	d="
M479.680481,476.413696 
	C469.943451,490.541809 456.054565,497.586914 440.182617,500.781281 
	C432.870667,502.252869 425.190765,501.896118 417.677704,502.368408 
	C417.537781,501.903320 417.397858,501.438232 417.257935,500.973175 
	C419.875763,497.457611 422.192627,493.660889 425.166412,490.477936 
	C435.044159,479.905365 445.199066,469.523224 458.148560,462.673920 
	C461.973541,460.650818 466.574768,459.419617 470.899658,459.163116 
	C478.951416,458.685547 483.472748,465.570831 480.786407,473.246918 
	C480.458466,474.183990 480.150909,475.128235 479.680481,476.413696 
z"/>
<path fill="#000000" opacity="1.000000" stroke="none" 
	d="
M398.660767,485.616943 
	C397.301880,487.433197 396.136444,488.950867 394.970978,490.468536 
	C394.506653,490.374023 394.042328,490.279510 393.578003,490.184998 
	C393.578003,487.398895 393.213562,484.554932 393.645050,481.837341 
	C395.045013,473.020050 413.551208,457.219849 423.662720,457.275269 
	C415.433929,466.576965 407.144043,475.947693 398.660767,485.616943 
z"/>
</svg>