<svg version="1.1" id="Layer_1" xmlns="http://www.w3.org/2000/svg" xmlns:xlink="http://www.w3.org/1999/xlink" x="0px" y="0px"
	 width="100%" viewBox="0 0 250 268" enable-background="new 0 0 250 268" xml:space="preserve">
<path fill="#F4F4F4" opacity="1.000000" stroke="none" 
	d="
M56.000000,269.000000 
	C42.312439,269.000000 28.624876,269.000000 14.433106,268.625641 
	C12.951352,264.604492 11.132316,260.960144 11.121744,257.310547 
	C10.946733,196.891403 10.989247,136.471588 11.049790,76.051994 
	C11.051487,74.358139 11.789245,72.665016 12.386158,71.284607 
	C17.565222,95.103996 40.205055,108.676712 62.921406,101.772507 
	C82.536423,95.810890 94.313461,74.768410 89.192657,54.832653 
	C84.007202,34.645195 63.936527,21.845675 43.770092,26.070297 
	C26.688618,29.648659 16.808332,40.710747 11.956808,56.853157 
	C11.411229,54.808411 11.039013,53.034573 11.027786,51.258453 
	C10.964082,41.179417 10.986705,31.099829 10.993263,20.637602 
	C11.735994,18.256742 12.253321,16.147732 13.230857,14.279527 
	C17.933157,5.292772 26.146000,4.335759 35.475773,4.989646 
	C66.324203,4.994346 96.705017,4.971746 127.085564,5.051821 
	C129.099091,5.057128 131.110550,5.843825 132.851654,6.505525 
	C107.162247,13.902640 91.842133,38.705196 97.126549,64.142006 
	C102.953453,92.190186 131.010178,109.342064 158.608810,101.727875 
	C186.033401,94.161705 201.257401,65.499771 192.118790,38.432316 
	C186.453430,21.652197 174.239746,11.721233 158.136719,5.956656 
	C160.194336,5.412050 161.976395,5.027991 163.759262,5.024145 
	C184.836716,4.978678 205.914276,4.990033 227.442169,4.990457 
	C230.593826,4.993725 233.295135,4.992984 236.360565,5.036251 
	C240.373062,7.527024 244.034241,9.955033 247.662384,12.431458 
	C248.819992,13.221607 249.889938,14.140191 251.000000,15.000002 
	C251.000000,46.354229 251.000000,77.708458 250.740128,109.517960 
	C250.307388,109.987633 250.134506,110.002022 249.599091,109.965988 
	C232.609009,119.589859 215.943710,129.200912 199.429306,139.064606 
	C198.177307,139.812408 197.424713,142.348694 197.407761,144.063202 
	C197.254883,159.522217 197.898560,175.013535 197.097473,190.432434 
	C196.628052,199.467728 199.105118,204.798111 207.432617,209.114777 
	C221.974564,216.652786 235.786224,225.599609 250.177368,233.981873 
	C250.633850,234.005142 250.816925,234.002579 251.000000,234.000000 
	C251.000000,245.628448 251.000000,257.256897 251.000000,269.000000 
	C218.312515,269.000000 185.624924,269.000000 152.639252,268.663452 
	C145.270218,256.846466 138.199219,245.366013 130.729065,233.237457 
	C143.071655,233.237457 154.225830,233.275955 165.379608,233.227203 
	C177.865479,233.172623 185.987762,225.120605 186.016998,212.602020 
	C186.080780,185.283737 186.087326,157.965057 186.014221,130.646820 
	C185.980377,117.999809 177.996933,109.988602 165.454437,109.972153 
	C127.475212,109.922348 89.495842,109.922821 51.516609,109.970009 
	C39.245605,109.985252 31.310316,118.020660 31.287842,130.405441 
	C31.238268,157.723785 31.235039,185.042374 31.287485,212.360703 
	C31.312433,225.355988 39.197048,233.194550 52.097805,233.233963 
	C60.019299,233.258179 67.940926,233.238449 76.793900,233.238449 
	C75.483772,235.534271 74.659500,237.086685 73.736664,238.578125 
	C68.135719,247.630127 62.488289,256.653534 56.932751,265.733215 
	C56.363266,266.663940 56.298801,267.903656 56.000000,269.000000 
z"/>
<path fill="#010101" opacity="1.000000" stroke="none" 
	d="
M56.468651,269.000000 
	C56.298801,267.903656 56.363266,266.663940 56.932751,265.733215 
	C62.488289,256.653534 68.135719,247.630127 73.736664,238.578125 
	C74.659500,237.086685 75.483772,235.534271 76.793900,233.238449 
	C67.940926,233.238449 60.019299,233.258179 52.097805,233.233963 
	C39.197048,233.194550 31.312433,225.355988 31.287485,212.360703 
	C31.235039,185.042374 31.238268,157.723785 31.287842,130.405441 
	C31.310316,118.020660 39.245605,109.985252 51.516609,109.970009 
	C89.495842,109.922821 127.475212,109.922348 165.454437,109.972153 
	C177.996933,109.988602 185.980377,117.999809 186.014221,130.646820 
	C186.087326,157.965057 186.080780,185.283737 186.016998,212.602020 
	C185.987762,225.120605 177.865479,233.172623 165.379608,233.227203 
	C154.225830,233.275955 143.071655,233.237457 130.729065,233.237457 
	C138.199219,245.366013 145.270218,256.846466 152.170593,268.663452 
	C144.312424,269.000000 136.624832,269.000000 128.328979,268.691620 
	C119.962692,257.992340 112.204697,247.601410 104.191376,236.868515 
	C97.473114,245.772415 91.256920,253.917343 85.162262,262.152222 
	C83.579758,264.290436 82.377113,266.709778 81.000000,269.000000 
	C72.979103,269.000000 64.958199,269.000000 56.468651,269.000000 
z"/>
<path fill="#EBEBEB" opacity="1.000000" stroke="none" 
	d="
M235.996429,4.992247 
	C233.295135,4.992984 230.593826,4.993725 227.345612,4.599155 
	C225.126343,3.802777 223.456619,3.067161 221.781250,3.053995 
	C209.290955,2.955838 196.799545,3.000857 184.308487,3.000845 
	C136.342819,3.000799 88.377106,2.979124 40.411663,3.084406 
	C38.609093,3.088363 36.809223,4.324500 35.008095,4.986437 
	C26.146000,4.335759 17.933157,5.292772 13.230857,14.279527 
	C12.253321,16.147732 11.735994,18.256742 10.626482,20.711750 
	C9.164871,26.732599 7.159905,32.293552 7.142288,37.860798 
	C6.926249,106.127876 6.857808,174.396545 7.177947,242.662811 
	C7.219144,251.447662 9.666998,260.221222 11.000000,269.000000 
	C9.933331,269.000000 8.866661,269.000000 7.390855,268.598389 
	C5.988528,263.172852 4.142994,258.151062 4.130220,253.124649 
	C3.943725,179.741455 3.803875,106.356621 4.179890,32.974876 
	C4.249760,19.339249 9.371541,7.582064 24.181828,3.003646 
	C24.923477,2.774375 25.400019,1.687537 26.000000,1.000000 
	C94.020897,1.000000 162.041794,1.000000 230.604263,1.356521 
	C232.762695,2.806111 234.379562,3.899180 235.996429,4.992247 
z"/>
<path fill="#E0E0E0" opacity="1.000000" stroke="none" 
	d="
M11.375000,269.000000 
	C9.666998,260.221222 7.219144,251.447662 7.177947,242.662811 
	C6.857808,174.396545 6.926249,106.127876 7.142288,37.860798 
	C7.159905,32.293552 9.164871,26.732599 10.613169,21.094576 
	C10.986705,31.099829 10.964082,41.179417 11.027786,51.258453 
	C11.039013,53.034573 11.411229,54.808411 12.000183,57.309128 
	C12.317012,62.347153 12.250396,66.659355 12.183779,70.971558 
	C11.789245,72.665016 11.051487,74.358139 11.049790,76.051994 
	C10.989247,136.471588 10.946733,196.891403 11.121744,257.310547 
	C11.132316,260.960144 12.951352,264.604492 13.964449,268.625641 
	C13.250000,269.000000 12.500000,269.000000 11.375000,269.000000 
z"/>
<path fill="#F2F2F2" opacity="1.000000" stroke="none" 
	d="
M25.545891,1.000000 
	C25.400019,1.687537 24.923477,2.774375 24.181828,3.003646 
	C9.371541,7.582064 4.249760,19.339249 4.179890,32.974876 
	C3.803875,106.356621 3.943725,179.741455 4.130220,253.124649 
	C4.142994,258.151062 5.988528,263.172852 6.990859,268.598389 
	C5.003436,269.000000 3.006872,269.000000 1.005154,269.000000 
	C1.000000,186.312439 1.000000,103.624878 1.346976,20.408596 
	C2.091051,19.599657 2.700464,19.405296 2.853671,19.026447 
	C5.515235,12.444943 9.411065,6.851264 15.391144,2.827938 
	C15.813058,2.544079 15.807034,1.624155 16.000000,1.000000 
	C19.030594,1.000000 22.061186,1.000000 25.545891,1.000000 
z"/>
<path fill="#F2F2F2" opacity="1.000000" stroke="none" 
	d="
M81.468658,269.000000 
	C82.377113,266.709778 83.579758,264.290436 85.162262,262.152222 
	C91.256920,253.917343 97.473114,245.772415 104.191376,236.868515 
	C112.204697,247.601410 119.962692,257.992340 127.860344,268.691620 
	C112.645775,269.000000 97.291542,269.000000 81.468658,269.000000 
z"/>
<path fill="#FAFAFA" opacity="1.000000" stroke="none" 
	d="
M15.527336,1.000000 
	C15.807034,1.624155 15.813058,2.544079 15.391144,2.827938 
	C9.411065,6.851264 5.515235,12.444943 2.853671,19.026447 
	C2.700464,19.405296 2.091051,19.599657 1.346976,19.939939 
	C1.000000,13.750855 1.000000,7.501712 1.000000,1.000000 
	C5.681906,1.000000 10.368289,1.000000 15.527336,1.000000 
z"/>
<path fill="#D7D7D7" opacity="1.000000" stroke="none" 
	d="
M251.000000,233.531342 
	C250.816925,234.002579 250.633850,234.005142 250.166199,233.516144 
	C249.908279,192.021851 249.934952,151.019135 249.961624,110.016411 
	C250.134506,110.002022 250.307388,109.987633 250.740128,109.986618 
	C251.000000,151.020889 251.000000,192.041794 251.000000,233.531342 
z"/>
<path fill="#EDEDED" opacity="1.000000" stroke="none" 
	d="
M236.360565,5.036254 
	C234.379562,3.899180 232.762695,2.806111 231.072922,1.356521 
	C234.030594,1.000000 237.061188,1.000000 240.600250,1.338520 
	C244.405823,3.784696 247.702911,5.892352 251.000000,8.000004 
	C251.000000,10.041667 251.000000,12.083333 251.000000,14.562502 
	C249.889938,14.140191 248.819992,13.221607 247.662384,12.431458 
	C244.034241,9.955033 240.373062,7.527024 236.360565,5.036254 
z"/>
<path fill="#F5F5F5" opacity="1.000000" stroke="none" 
	d="
M251.000000,7.502100 
	C247.702911,5.892352 244.405823,3.784696 241.054367,1.338520 
	C244.233170,1.000000 247.466339,1.000000 251.000000,1.000000 
	C251.000000,2.996732 251.000000,5.000461 251.000000,7.502100 
z"/>
<path fill="#030303" opacity="1.000000" stroke="none" 
	d="
M249.599091,109.965988 
	C249.934952,151.019135 249.908279,192.021851 249.892776,233.490295 
	C235.786224,225.599609 221.974564,216.652786 207.432617,209.114777 
	C199.105118,204.798111 196.628052,199.467728 197.097473,190.432434 
	C197.898560,175.013535 197.254883,159.522217 197.407761,144.063202 
	C197.424713,142.348694 198.177307,139.812408 199.429306,139.064606 
	C215.943710,129.200912 232.609009,119.589859 249.599091,109.965988 
z"/>
<path fill="#060606" opacity="1.000000" stroke="none" 
	d="
M157.861542,6.293839 
	C174.239746,11.721233 186.453430,21.652197 192.118790,38.432316 
	C201.257401,65.499771 186.033401,94.161705 158.608810,101.727875 
	C131.010178,109.342064 102.953453,92.190186 97.126549,64.142006 
	C91.842133,38.705196 107.162247,13.902640 133.281998,6.527939 
	C141.942963,6.305883 149.902252,6.299861 157.861542,6.293839 
M167.240784,77.765648 
	C168.234818,76.649452 169.270813,75.567589 170.216492,74.411835 
	C181.568436,60.538403 179.268799,39.903156 165.188049,29.175537 
	C150.326721,17.853228 129.515335,21.062675 119.044777,36.291553 
	C110.028786,49.404839 111.947525,66.798805 123.600769,77.592926 
	C135.880463,88.967323 153.019958,89.219223 167.240784,77.765648 
z"/>
<path fill="#060606" opacity="1.000000" stroke="none" 
	d="
M12.386158,71.284607 
	C12.250396,66.659355 12.317012,62.347153 12.340253,57.578979 
	C16.808332,40.710747 26.688618,29.648659 43.770092,26.070297 
	C63.936527,21.845675 84.007202,34.645195 89.192657,54.832653 
	C94.313461,74.768410 82.536423,95.810890 62.921406,101.772507 
	C40.205055,108.676712 17.565222,95.103996 12.386158,71.284607 
M36.484581,81.071968 
	C37.693848,81.945610 38.832188,82.945259 40.123936,83.672363 
	C48.224598,88.232040 58.903362,87.153107 65.729912,81.150124 
	C72.908440,74.837631 75.272385,64.965256 71.700363,56.216099 
	C68.081505,47.352222 59.112156,41.515911 49.626328,42.346199 
	C40.571583,43.138760 33.899891,47.972122 30.592186,56.345577 
	C27.034603,65.351593 29.051682,73.626083 36.484581,81.071968 
z"/>
<path fill="#E6E6E6" opacity="1.000000" stroke="none" 
	d="
M158.136719,5.956656 
	C149.902252,6.299861 141.942963,6.305883 133.553314,6.289491 
	C131.110550,5.843825 129.099091,5.057128 127.085564,5.051821 
	C96.705017,4.971746 66.324203,4.994346 35.475773,4.989646 
	C36.809223,4.324500 38.609093,3.088363 40.411663,3.084406 
	C88.377106,2.979124 136.342819,3.000799 184.308487,3.000845 
	C196.799545,3.000857 209.290955,2.955838 221.781250,3.053995 
	C223.456619,3.067161 225.126343,3.802777 226.895248,4.595146 
	C205.914276,4.990033 184.836716,4.978678 163.759262,5.024145 
	C161.976395,5.027991 160.194336,5.412050 158.136719,5.956656 
z"/>
<path fill="#F4F4F4" opacity="1.000000" stroke="none" 
	d="
M166.967468,77.995956 
	C153.019958,89.219223 135.880463,88.967323 123.600769,77.592926 
	C111.947525,66.798805 110.028786,49.404839 119.044777,36.291553 
	C129.515335,21.062675 150.326721,17.853228 165.188049,29.175537 
	C179.268799,39.903156 181.568436,60.538403 170.216492,74.411835 
	C169.270813,75.567589 168.234818,76.649452 166.967468,77.995956 
z"/>
<path fill="#F2F2F2" opacity="1.000000" stroke="none" 
	d="
M36.224258,80.818329 
	C29.051682,73.626083 27.034603,65.351593 30.592186,56.345577 
	C33.899891,47.972122 40.571583,43.138760 49.626328,42.346199 
	C59.112156,41.515911 68.081505,47.352222 71.700363,56.216099 
	C75.272385,64.965256 72.908440,74.837631 65.729912,81.150124 
	C58.903362,87.153107 48.224598,88.232040 40.123936,83.672363 
	C38.832188,82.945259 37.693848,81.945610 36.224258,80.818329 
z"/>
</svg>