<svg version="1.1" id="Layer_1" xmlns="http://www.w3.org/2000/svg" xmlns:xlink="http://www.w3.org/1999/xlink" x="0px" y="0px"
	 width="100%" viewBox="0 0 624 640" enable-background="new 0 0 624 640" xml:space="preserve">
<path fill="#000000" opacity="1.000000" stroke="none" 
	d="
M563.468628,641.000000 
	C538.103027,625.691650 522.814758,600.990540 503.851288,579.957336 
	C480.096436,553.609802 457.398041,526.310425 434.197968,499.461365 
	C429.938416,494.531891 425.840118,489.488983 422.614288,483.827484 
	C420.554626,480.212677 418.233154,480.008453 414.871643,482.097626 
	C393.779236,495.206635 371.166077,504.806946 347.029480,510.636993 
	C318.291748,517.578369 289.303009,519.259338 259.842651,515.596313 
	C216.778885,510.241913 178.216873,494.241669 143.943359,467.970642 
	C108.470535,440.780304 82.875496,406.048126 66.662979,364.360413 
	C52.755608,328.600037 47.745033,291.527100 51.915359,253.562088 
	C58.771122,191.149948 86.023628,138.921753 133.415070,97.594536 
	C167.509079,67.863220 207.216309,49.662632 251.820389,42.349514 
	C293.996368,35.434505 335.266571,39.763588 374.988312,55.142838 
	C431.442505,77.000473 473.906769,115.010864 502.115540,168.756607 
	C515.259277,193.799149 523.717896,220.391937 526.883240,248.395691 
	C534.632080,316.950317 516.997681,378.287720 473.066132,431.787262 
	C470.212708,435.262054 467.355560,438.745880 464.294281,442.033813 
	C462.008148,444.489227 462.191437,446.308838 464.397888,448.830902 
	C479.202301,465.753082 493.886536,482.780853 508.555939,499.820679 
	C531.050354,525.950012 553.558960,552.067566 575.943359,578.291016 
	C585.174255,589.105042 591.413086,601.490295 594.406433,615.475891 
	C596.308533,624.363281 595.328369,632.670837 590.083618,640.654602 
	C581.312439,641.000000 572.624817,641.000000 563.468628,641.000000 
M164.500168,125.022179 
	C126.575630,155.456299 102.120918,194.075226 92.734390,242.079697 
	C87.573341,268.474274 87.624710,294.863342 93.758705,320.857880 
	C106.329811,374.131561 136.265686,415.554413 182.666382,444.502350 
	C225.495483,471.222107 272.468353,480.112823 322.127014,472.346252 
	C367.156036,465.303741 406.030762,445.129456 436.975128,411.508118 
	C480.481628,364.237823 497.863037,308.341766 487.238708,244.785965 
	C480.366180,203.674057 461.261963,168.231049 431.108459,139.419418 
	C385.916351,96.238457 331.796997,77.646301 269.481750,83.275917 
	C230.634018,86.785469 195.961411,100.941086 164.500168,125.022179 
z"/>
</svg>