<svg version="1.1" id="Layer_1" xmlns="http://www.w3.org/2000/svg" xmlns:xlink="http://www.w3.org/1999/xlink" x="0px" y="0px"
	 width="100%" viewBox="0 0 309 259" enable-background="new 0 0 309 259" xml:space="preserve">
<path fill="#040404" opacity="1.000000" stroke="none" 
	d="
M186.000000,0.999999 
	C190.024551,1.000000 194.049088,1.000000 198.524780,1.353134 
	C197.978561,2.977063 197.096085,4.362028 195.965134,5.500062 
	C188.725449,12.785086 181.431198,20.015873 174.295456,27.124470 
	C177.301315,30.780073 180.335724,33.900444 182.659531,37.481884 
	C184.429489,40.209736 186.346939,41.054432 189.514771,41.042042 
	C220.429855,40.921135 251.347809,41.179214 282.259888,40.851330 
	C292.635773,40.741276 300.782074,43.595055 305.863770,53.461670 
	C306.231110,57.165798 306.952698,60.451214 306.957153,63.737610 
	C307.028015,116.033279 307.033203,168.329102 306.960114,220.624786 
	C306.953888,225.075424 306.285919,229.525162 305.660583,234.179413 
	C302.047546,240.428253 296.696960,243.157684 290.018616,243.880188 
	C283.132599,244.625153 276.265564,245.545258 269.000000,246.436630 
	C269.000000,251.121613 269.000000,255.560806 269.000000,260.000000 
	C256.979095,260.000000 244.958206,260.000000 232.474686,259.535095 
	C232.012054,254.963394 232.012054,250.856644 232.012054,246.530823 
	C181.672806,246.530823 131.897125,246.530823 81.747414,246.530823 
	C81.490440,251.161804 81.245216,255.580902 81.000000,260.000000 
	C69.312439,260.000000 57.624878,260.000000 45.427750,259.537079 
	C44.918179,254.978745 44.918179,250.883331 44.918179,246.298004 
	C39.499283,246.298004 34.705093,246.038483 29.948336,246.350235 
	C18.921886,247.072861 11.545325,242.296478 7.477136,231.744858 
	C7.325699,228.844101 7.015423,226.357986 7.014080,223.871689 
	C6.985996,171.886169 6.962076,119.900604 7.042668,67.915199 
	C7.050347,62.961796 7.754346,58.009464 8.409848,52.865807 
	C12.834155,44.226505 19.859909,40.960327 28.990517,40.995522 
	C53.470413,41.089882 77.951050,41.060406 102.430901,40.959999 
	C104.222412,40.952652 106.579742,40.527229 107.695976,39.360485 
	C111.538544,35.344040 114.946693,30.911987 118.599747,26.543325 
	C111.650383,19.553305 104.575798,12.519188 97.624931,5.364866 
	C96.472885,4.179092 95.861328,2.468214 95.000000,1.000000 
	C98.692909,1.000000 102.385818,1.000000 106.719498,1.278813 
	C113.356522,7.529659 119.251465,13.610138 125.432510,19.384354 
	C126.704384,20.572519 129.335892,21.526714 130.845367,21.042986 
	C141.503815,17.627365 151.976273,17.570190 162.489532,21.504812 
	C163.576309,21.911543 165.477707,22.126390 166.088257,21.516464 
	C172.829681,14.781938 179.390366,7.866471 186.000000,0.999999 
M61.499966,208.810303 
	C114.297546,208.810120 167.095123,208.815796 219.892700,208.804260 
	C229.088562,208.802261 232.759811,205.187668 232.710342,196.196625 
	C232.480347,154.393661 232.238892,112.590752 231.983429,70.787933 
	C231.937973,63.348240 228.361481,59.716064 220.992218,59.713772 
	C159.533752,59.694660 98.075272,59.693909 36.616806,59.713402 
	C29.510038,59.715656 25.776363,63.228142 25.763378,70.387878 
	C25.686342,112.859032 25.683897,155.330475 25.760332,197.801620 
	C25.773487,205.112015 29.592579,208.691162 37.016113,208.785858 
	C44.842896,208.885712 52.671917,208.809540 61.499966,208.810303 
M285.019592,86.633385 
	C278.179138,78.239853 268.365540,75.891418 259.776886,80.592728 
	C251.833954,84.940582 247.804428,94.361771 250.450897,102.703865 
	C252.890656,110.394356 258.277161,115.120216 266.108978,116.420403 
	C273.822815,117.701004 280.346161,114.770447 284.808960,108.401947 
	C289.533569,101.659782 289.545776,94.438835 285.019592,86.633385 
M277.434937,153.376724 
	C280.886200,153.376724 284.337494,153.376724 287.910065,153.376724 
	C287.910065,146.867020 287.910065,140.929245 287.910065,134.794067 
	C275.274506,134.794067 262.873535,134.794067 250.316528,134.794067 
	C250.316528,141.040268 250.316528,146.956177 250.316528,153.376678 
	C259.196045,153.376678 267.824890,153.376678 277.434937,153.376724 
M266.502594,172.133026 
	C261.097382,172.133026 255.692139,172.133026 250.362701,172.133026 
	C250.362701,178.619995 250.362701,184.197754 250.362701,190.196304 
	C256.770386,190.196304 262.889160,190.196304 269.007965,190.196304 
	C275.265533,190.196304 281.523102,190.196304 287.745575,190.196304 
	C287.745575,183.906769 287.745575,178.212219 287.745575,172.133041 
	C280.741821,172.133041 274.121735,172.133041 266.502594,172.133026 
z"/>
<path fill="#F5F5F5" opacity="1.000000" stroke="none" 
	d="
M305.884338,53.043419 
	C300.782074,43.595055 292.635773,40.741276 282.259888,40.851330 
	C251.347809,41.179214 220.429855,40.921135 189.514771,41.042042 
	C186.346939,41.054432 184.429489,40.209736 182.659531,37.481884 
	C180.335724,33.900444 177.301315,30.780073 174.295456,27.124470 
	C181.431198,20.015873 188.725449,12.785086 195.965134,5.500062 
	C197.096085,4.362028 197.978561,2.977063 198.987946,1.353134 
	C233.687561,1.000000 268.375122,1.000000 303.537048,1.387532 
	C305.006775,7.558194 306.576813,13.312597 306.867676,19.130949 
	C307.346588,28.710615 307.051331,38.332249 306.947479,47.934738 
	C306.929047,49.641266 306.255432,51.340706 305.884338,53.043419 
z"/>
<path fill="#F4F4F4" opacity="1.000000" stroke="none" 
	d="
M94.531342,1.000000 
	C95.861328,2.468214 96.472885,4.179092 97.624931,5.364866 
	C104.575798,12.519188 111.650383,19.553305 118.599747,26.543325 
	C114.946693,30.911987 111.538544,35.344040 107.695976,39.360485 
	C106.579742,40.527229 104.222412,40.952652 102.430901,40.959999 
	C77.951050,41.060406 53.470413,41.089882 28.990517,40.995522 
	C19.859909,40.960327 12.834155,44.226505 8.098602,52.577118 
	C7.483500,35.278038 4.539760,17.935984 10.000000,1.000000 
	C38.020893,1.000000 66.041786,1.000000 94.531342,1.000000 
z"/>
<path fill="#EDEDED" opacity="1.000000" stroke="none" 
	d="
M81.468658,260.000000 
	C81.245216,255.580902 81.490440,251.161804 81.747414,246.530823 
	C131.897125,246.530823 181.672806,246.530823 232.012054,246.530823 
	C232.012054,250.856644 232.012054,254.963394 232.006027,259.535095 
	C181.979111,260.000000 131.958206,260.000000 81.468658,260.000000 
z"/>
<path fill="#FFFFFF" opacity="1.000000" stroke="none" 
	d="
M9.508951,1.000000 
	C4.539760,17.935984 7.483500,35.278038 7.823834,52.767948 
	C7.754346,58.009464 7.050347,62.961796 7.042668,67.915199 
	C6.962076,119.900604 6.985996,171.886169 7.014080,223.871689 
	C7.015423,226.357986 7.325699,228.844101 7.335841,232.261398 
	C6.623214,242.389099 6.321707,251.549393 11.000000,260.000000 
	C7.672457,260.000000 4.344913,260.000000 1.016655,260.000000 
	C1.015939,173.666672 1.015939,87.333328 1.015939,1.000000 
	C3.693887,1.000000 6.355895,1.000000 9.508951,1.000000 
z"/>
<path fill="#F1F1F1" opacity="1.000000" stroke="none" 
	d="
M185.531342,0.999999 
	C179.390366,7.866471 172.829681,14.781938 166.088257,21.516464 
	C165.477707,22.126390 163.576309,21.911543 162.489532,21.504812 
	C151.976273,17.570190 141.503815,17.627365 130.845367,21.042986 
	C129.335892,21.526714 126.704384,20.572519 125.432510,19.384354 
	C119.251465,13.610138 113.356522,7.529659 107.180138,1.278813 
	C133.020889,1.000000 159.041794,1.000000 185.531342,0.999999 
z"/>
<path fill="#FFFFFF" opacity="1.000000" stroke="none" 
	d="
M305.863770,53.461674 
	C306.255432,51.340706 306.929047,49.641266 306.947479,47.934738 
	C307.051331,38.332249 307.346588,28.710615 306.867676,19.130949 
	C306.576813,13.312597 305.006775,7.558194 304.005676,1.387532 
	C305.996338,1.000000 307.992706,1.000000 309.990723,1.000000 
	C309.992432,87.333336 309.992432,173.666672 309.988647,260.000000 
	C307.988495,260.000000 305.992157,260.000000 303.536652,259.634766 
	C303.756409,257.759430 304.479736,256.267456 305.106598,254.736053 
	C307.896851,247.919724 307.709808,240.976868 305.925354,233.975311 
	C306.285919,229.525162 306.953888,225.075424 306.960114,220.624786 
	C307.033203,168.329102 307.028015,116.033279 306.957153,63.737610 
	C306.952698,60.451214 306.231110,57.165798 305.863770,53.461674 
z"/>
<path fill="#F2F2F2" opacity="1.000000" stroke="none" 
	d="
M305.660583,234.179413 
	C307.709808,240.976868 307.896851,247.919724 305.106598,254.736053 
	C304.479736,256.267456 303.756409,257.759430 303.038757,259.634766 
	C291.979095,260.000000 280.958221,260.000000 269.468658,260.000000 
	C269.000000,255.560806 269.000000,251.121613 269.000000,246.436630 
	C276.265564,245.545258 283.132599,244.625153 290.018616,243.880188 
	C296.696960,243.157684 302.047546,240.428253 305.660583,234.179413 
z"/>
<path fill="#EFEFEF" opacity="1.000000" stroke="none" 
	d="
M11.468657,260.000000 
	C6.321707,251.549393 6.623214,242.389099 7.320868,232.675949 
	C11.545325,242.296478 18.921886,247.072861 29.948336,246.350235 
	C34.705093,246.038483 39.499283,246.298004 44.918179,246.298004 
	C44.918179,250.883331 44.918179,254.978745 44.959091,259.537079 
	C33.979103,260.000000 22.958210,260.000000 11.468657,260.000000 
z"/>
<path fill="#F6F6F6" opacity="1.000000" stroke="none" 
	d="
M60.999962,208.810303 
	C52.671917,208.809540 44.842896,208.885712 37.016113,208.785858 
	C29.592579,208.691162 25.773487,205.112015 25.760332,197.801620 
	C25.683897,155.330475 25.686342,112.859032 25.763378,70.387878 
	C25.776363,63.228142 29.510038,59.715656 36.616806,59.713402 
	C98.075272,59.693909 159.533752,59.694660 220.992218,59.713772 
	C228.361481,59.716064 231.937973,63.348240 231.983429,70.787933 
	C232.238892,112.590752 232.480347,154.393661 232.710342,196.196625 
	C232.759811,205.187668 229.088562,208.802261 219.892700,208.804260 
	C167.095123,208.815796 114.297546,208.810120 60.999962,208.810303 
z"/>
<path fill="#F1F1F1" opacity="1.000000" stroke="none" 
	d="
M285.221497,86.950150 
	C289.545776,94.438835 289.533569,101.659782 284.808960,108.401947 
	C280.346161,114.770447 273.822815,117.701004 266.108978,116.420403 
	C258.277161,115.120216 252.890656,110.394356 250.450897,102.703865 
	C247.804428,94.361771 251.833954,84.940582 259.776886,80.592728 
	C268.365540,75.891418 278.179138,78.239853 285.221497,86.950150 
z"/>
<path fill="#EDEDED" opacity="1.000000" stroke="none" 
	d="
M276.944336,153.376709 
	C267.824890,153.376678 259.196045,153.376678 250.316528,153.376678 
	C250.316528,146.956177 250.316528,141.040268 250.316528,134.794067 
	C262.873535,134.794067 275.274506,134.794067 287.910065,134.794067 
	C287.910065,140.929245 287.910065,146.867020 287.910065,153.376724 
	C284.337494,153.376724 280.886200,153.376724 276.944336,153.376709 
z"/>
<path fill="#F0F0F0" opacity="1.000000" stroke="none" 
	d="
M267.002136,172.133026 
	C274.121735,172.133041 280.741821,172.133041 287.745575,172.133041 
	C287.745575,178.212219 287.745575,183.906769 287.745575,190.196304 
	C281.523102,190.196304 275.265533,190.196304 269.007965,190.196304 
	C262.889160,190.196304 256.770386,190.196304 250.362701,190.196304 
	C250.362701,184.197754 250.362701,178.619995 250.362701,172.133026 
	C255.692139,172.133026 261.097382,172.133026 267.002136,172.133026 
z"/>
</svg>